<svg xmlns="http://www.w3.org/2000/svg" viewBox="0 0 180 52"><rect width="180" height="52" rx="8" fill="#131022"/><path d="M43.57,25.81A7,7,0,0,1,47,19.91a7.45,7.45,0,0,0-5.81-3.07c-2.45-.25-4.82,1.43-6.07,1.43s-3.19-1.4-5.26-1.36a7.77,7.77,0,0,0-6.52,3.87c-2.82,4.76-.72,11.76,2,15.6,1.35,1.89,2.93,4,5,3.92S33.1,39,35.54,39s3.12,1.26,5.23,1.21,3.54-1.89,4.84-3.79A15.16,15.16,0,0,0,47.82,32,6.84,6.84,0,0,1,43.57,25.81Z" fill="#fff"/><path d="M39.59,14.31a6.79,6.79,0,0,0,1.62-5,7.26,7.26,0,0,0-4.67,2.36,6.47,6.47,0,0,0-1.67,4.78A6.07,6.07,0,0,0,39.59,14.31Z" fill="#fff"/><path d="M72.76,40H69.93l-1.54-4.75H63L61.53,40H58.78l5.33-16.15H67.4Zm-4.84-6.74-1.4-4.21c-.15-.43-.43-1.45-.83-3h0c-.17.68-.43,1.7-.79,3l-1.38,4.21Z" fill="#fff"/><path d="M86.47,34.06a6.55,6.55,0,0,1-1.65,4.7,4.87,4.87,0,0,1-3.66,1.53,3.69,3.69,0,0,1-3.39-1.65h0v6.13h-2.7V32.22c0-1.25,0-2.52-.1-3.83H77.3l.15,1.84h0A4.8,4.8,0,0,1,84.13,29a4.9,4.9,0,0,1,.87.77A6.28,6.28,0,0,1,86.47,34.06Zm-2.71.1A4.74,4.74,0,0,0,83,31.35a2.85,2.85,0,0,0-4-.59l-.1.08a3,3,0,0,0-1,1.66,3.51,3.51,0,0,0-.12.79v1.94a3.11,3.11,0,0,0,.8,2.15,2.68,2.68,0,0,0,2.08.87A2.73,2.73,0,0,0,83,37.13,4.79,4.79,0,0,0,83.76,34.16Z" fill="#fff"/><path d="M100.2,34.06a6.55,6.55,0,0,1-1.65,4.7,4.87,4.87,0,0,1-3.66,1.53,3.69,3.69,0,0,1-3.39-1.65h0v6.13H88.8V32.22c0-1.25,0-2.52-.1-3.83H91l.14,1.84h0A4.81,4.81,0,0,1,97.83,29a4.9,4.9,0,0,1,.87.77A6.34,6.34,0,0,1,100.2,34.06Zm-2.7.1a4.74,4.74,0,0,0-.79-2.81A2.77,2.77,0,0,0,94.4,30.2a2.81,2.81,0,0,0-1.78.64,2.9,2.9,0,0,0-1,1.66,3.52,3.52,0,0,0-.13.79v1.94a3.11,3.11,0,0,0,.8,2.15,2.68,2.68,0,0,0,2.08.87,2.73,2.73,0,0,0,2.33-1.12A4.89,4.89,0,0,0,97.5,34.16Z" fill="#fff"/><path d="M115.55,35.5a4.26,4.26,0,0,1-1.47,3.35,6.61,6.61,0,0,1-4.51,1.41,8,8,0,0,1-4.29-1l.61-2.16a7.4,7.4,0,0,0,3.84,1,3.68,3.68,0,0,0,2.34-.66,2.12,2.12,0,0,0,.83-1.76,2.24,2.24,0,0,0-.69-1.65,6.44,6.44,0,0,0-2.28-1.25q-4.35-1.59-4.35-4.63a4.05,4.05,0,0,1,1.52-3.26,6.19,6.19,0,0,1,4.06-1.27,8.09,8.09,0,0,1,3.75.76l-.66,2.11a6.72,6.72,0,0,0-3.17-.74,3.24,3.24,0,0,0-2.18.67,1.9,1.9,0,0,0-.67,1.46,2,2,0,0,0,.76,1.58,8.92,8.92,0,0,0,2.41,1.25,8.23,8.23,0,0,1,3.15,2A4,4,0,0,1,115.55,35.5Z" fill="#fff"/><path d="M124.32,30.33H121.4V36c0,1.44.51,2.15,1.55,2.15a4.61,4.61,0,0,0,1.17-.12l.08,2a6.25,6.25,0,0,1-2.06.28,3.26,3.26,0,0,1-2.46-.93,4.48,4.48,0,0,1-.89-3.14V30.32h-1.74V28.38h1.74V26.25l2.61-.77v2.9h2.92Z" fill="#fff"/><path d="M137.51,34.11a6.3,6.3,0,0,1-1.57,4.41,5.71,5.71,0,0,1-4.37,1.77,5.42,5.42,0,0,1-4.19-1.7,6,6,0,0,1-1.56-4.29,6.28,6.28,0,0,1,1.61-4.43,5.64,5.64,0,0,1,4.33-1.72,5.52,5.52,0,0,1,4.23,1.7A6,6,0,0,1,137.51,34.11Zm-2.75.08a5.13,5.13,0,0,0-.71-2.76,2.78,2.78,0,0,0-3.8-1,2.72,2.72,0,0,0-1,1,5.22,5.22,0,0,0-.72,2.81,5.05,5.05,0,0,0,.72,2.76A2.74,2.74,0,0,0,133,38a2.7,2.7,0,0,0,1-1A5.15,5.15,0,0,0,134.76,34.19Z" fill="#fff"/><path d="M146.14,30.66a4.76,4.76,0,0,0-.84-.07,2.53,2.53,0,0,0-2.16,1,3.84,3.84,0,0,0-.66,2.3V40h-2.66V32c0-1.34,0-2.56-.1-3.66H142l.1,2.22h.07a4,4,0,0,1,1.33-1.84,3.25,3.25,0,0,1,1.91-.62,3.75,3.75,0,0,1,.67,0Z" fill="#fff"/><path d="M158,33.65a5.82,5.82,0,0,1-.1,1.18h-8a3.31,3.31,0,0,0,1.15,2.63,4,4,0,0,0,2.6.82,9.05,9.05,0,0,0,3.22-.55l.42,1.79a10.13,10.13,0,0,1-4,.72A5.87,5.87,0,0,1,149,38.65a5.8,5.8,0,0,1-1.58-4.28A6.54,6.54,0,0,1,148.87,30,5.15,5.15,0,0,1,153,28.12,4.52,4.52,0,0,1,157,30,6.13,6.13,0,0,1,158,33.65ZM155.47,33a3.44,3.44,0,0,0-.51-2,2.35,2.35,0,0,0-2.12-1.08,2.56,2.56,0,0,0-2.11,1,3.75,3.75,0,0,0-.78,2Z" fill="#fff"/><path d="M67,14a3.93,3.93,0,0,1-1.31,3.22,5.32,5.32,0,0,1-3.47,1,15.11,15.11,0,0,1-1.9-.09v-7.8a14,14,0,0,1,2.24-.17,4.92,4.92,0,0,1,3.22.91A3.59,3.59,0,0,1,67,14Zm-1.37,0a2.84,2.84,0,0,0-.76-2.13,3,3,0,0,0-2.2-.75,4.66,4.66,0,0,0-1.05.09v5.93a6.46,6.46,0,0,0,.88,0,3.16,3.16,0,0,0,2.31-.81A3.19,3.19,0,0,0,65.67,14Z" fill="#fff"/><path d="M74.33,15.2a3.1,3.1,0,0,1-.77,2.16,2.81,2.81,0,0,1-2.15.87,2.65,2.65,0,0,1-2.06-.83,3,3,0,0,1-.76-2.11,3,3,0,0,1,.79-2.17,3,3,0,0,1,4.2,0A3,3,0,0,1,74.33,15.2ZM73,15.2a2.58,2.58,0,0,0-.35-1.36,1.29,1.29,0,0,0-1.17-.68,1.31,1.31,0,0,0-1.19.68,2.5,2.5,0,0,0-.35,1.38,2.41,2.41,0,0,0,.35,1.36,1.35,1.35,0,0,0,1.84.51,1.39,1.39,0,0,0,.51-.51A2.54,2.54,0,0,0,73,15.24Z" fill="#fff"/><path d="M84.11,12.39,82.27,18.1H81.08l-.76-2.48a16.7,16.7,0,0,1-.47-1.85h0a12.85,12.85,0,0,1-.47,1.85l-.81,2.48H77.33l-1.72-5.71H77l.66,2.71c.16.65.29,1.26.4,1.84h0c.1-.48.26-1.09.49-1.82l.83-2.73h1.06l.8,2.67c.19.65.35,1.28.47,1.88h0c.09-.59.22-1.21.39-1.88l.72-2.67Z" fill="#fff"/><path d="M90.87,18.1H89.56V14.83c0-1-.39-1.52-1.18-1.52a1.17,1.17,0,0,0-.94.42,1.47,1.47,0,0,0-.36,1V18.1H85.77V12.36h1.14l.06.9h0a1.85,1.85,0,0,1,.67-.69,2.17,2.17,0,0,1,1.19-.32,1.91,1.91,0,0,1,1.36.51,2.52,2.52,0,0,1,.68,1.9Z" fill="#fff"/><path d="M94.46,18.1h-1.3V9.76h1.3Z" fill="#fff"/><path d="M102.14,15.2a3.1,3.1,0,0,1-.77,2.16,2.81,2.81,0,0,1-2.15.87,2.65,2.65,0,0,1-2.06-.83,3,3,0,0,1-.77-2.11,3.08,3.08,0,0,1,.79-2.17,3.06,3.06,0,0,1,4.21,0A3,3,0,0,1,102.14,15.2Zm-1.35,0a2.5,2.5,0,0,0-.36-1.36,1.29,1.29,0,0,0-1.16-.68,1.32,1.32,0,0,0-1.2.68,2.68,2.68,0,0,0-.35,1.38,2.58,2.58,0,0,0,.35,1.36,1.35,1.35,0,0,0,1.84.51,1.39,1.39,0,0,0,.51-.51,2.44,2.44,0,0,0,.37-1.34Z" fill="#fff"/><path d="M108.45,18.1h-1.17l-.1-.65h0a2,2,0,0,1-1.71.78,1.81,1.81,0,0,1-1.34-.51,1.63,1.63,0,0,1-.46-1.17,1.78,1.78,0,0,1,.9-1.6,4.73,4.73,0,0,1,2.53-.54V14.3c0-.75-.4-1.13-1.21-1.13a2.77,2.77,0,0,0-1.53.43l-.27-.84a3.88,3.88,0,0,1,2-.49,2.06,2.06,0,0,1,2.31,1.78,2.25,2.25,0,0,1,0,.58v2.11A7.74,7.74,0,0,0,108.45,18.1Zm-1.35-2v-.88c-1.44,0-2.16.36-2.16,1.15a.83.83,0,0,0,.25.67.9.9,0,0,0,.63.22,1.34,1.34,0,0,0,.8-.26,1,1,0,0,0,.45-.68.57.57,0,0,0,0-.18Z" fill="#fff"/><path d="M115.86,18.1H114.7l-.06-.91h0a2,2,0,0,1-1.88,1,2.25,2.25,0,0,1-1.76-.81,3.09,3.09,0,0,1-.7-2.1,3.24,3.24,0,0,1,.76-2.25,2.32,2.32,0,0,1,1.81-.8,1.77,1.77,0,0,1,1.65.77h0V9.76h1.3v6.8C115.81,17.12,115.83,17.63,115.86,18.1Zm-1.35-2.41v-.95a1.34,1.34,0,0,0,0-.4,1.41,1.41,0,0,0-.47-.77,1.26,1.26,0,0,0-.87-.31,1.34,1.34,0,0,0-1.15.56,2.39,2.39,0,0,0-.42,1.45,2.26,2.26,0,0,0,.4,1.38,1.38,1.38,0,0,0,1.14.56,1.29,1.29,0,0,0,1-.47A1.55,1.55,0,0,0,114.51,15.69Z" fill="#fff"/><path d="M127,15.2a3.1,3.1,0,0,1-.77,2.16,2.81,2.81,0,0,1-2.15.87A2.67,2.67,0,0,1,122,17.4a3,3,0,0,1-.76-2.11A2.88,2.88,0,1,1,127,15.2Zm-1.35,0a2.58,2.58,0,0,0-.35-1.36,1.29,1.29,0,0,0-1.17-.68,1.35,1.35,0,0,0-1.2.68,2.68,2.68,0,0,0-.35,1.38,2.58,2.58,0,0,0,.35,1.36,1.36,1.36,0,0,0,1.86.5,1.33,1.33,0,0,0,.5-.5,2.53,2.53,0,0,0,.37-1.34Z" fill="#fff"/><path d="M134,18.1h-1.3V14.83c0-1-.4-1.52-1.18-1.52a1.17,1.17,0,0,0-.94.42,1.41,1.41,0,0,0-.37,1V18.1h-1.3V14c0-.5,0-1,0-1.64H130l.06.9h0a1.88,1.88,0,0,1,.68-.69,2.12,2.12,0,0,1,1.18-.32,1.92,1.92,0,0,1,1.37.51,2.51,2.51,0,0,1,.67,1.9Z" fill="#fff"/><path d="M142.8,13.34h-1.44v2.78c0,.7.26,1.05.76,1.05a2.28,2.28,0,0,0,.58-.05v1a3.06,3.06,0,0,1-1,.14,1.54,1.54,0,0,1-1.2-.46,2.24,2.24,0,0,1-.44-1.54V13.34h-.86v-.95h.86V11.34l1.28-.38v1.42h1.43v1Z" fill="#fff"/><path d="M149.7,18.1h-1.31V14.85c0-1-.39-1.54-1.18-1.54a1.25,1.25,0,0,0-1.24.9,1.74,1.74,0,0,0-.06.45V18.1H144.6V9.76h1.31v3.45h0a2,2,0,0,1,1.77-.94,1.82,1.82,0,0,1,1.34.52,2.58,2.58,0,0,1,.66,1.91Z" fill="#fff"/><path d="M156.82,15a2.81,2.81,0,0,1,0,.58h-3.91a1.67,1.67,0,0,0,.57,1.29,2,2,0,0,0,1.28.41,4.25,4.25,0,0,0,1.58-.28l.2.89a5.09,5.09,0,0,1-2,.35,2.92,2.92,0,0,1-2.14-.78,2.81,2.81,0,0,1-.78-2.1,3.3,3.3,0,0,1,.73-2.15,2.5,2.5,0,0,1,2-.92,2.2,2.2,0,0,1,1.92.92A3,3,0,0,1,156.82,15Zm-1.25-.32a1.61,1.61,0,0,0-.25-1,1.16,1.16,0,0,0-1-.53,1.24,1.24,0,0,0-1,.52,1.85,1.85,0,0,0-.39,1Z" fill="#fff"/></svg>