<svg xmlns="http://www.w3.org/2000/svg" width="135.21" height="61.27" viewBox="0 0 135.21 61.27"><path d="M19.05,27.44a2.19,2.19,0,0,1-2.23-1.24c-.25-.45-.49-.7-.71-.77a3.84,3.84,0,0,0-1.24,0c-1.3.15-2.7,1.33-4.18,3.55Q7.57,33.65,8,37.36a4.12,4.12,0,0,0,1.46,2.78,3.6,3.6,0,0,0,2.85.91,6.92,6.92,0,0,0,3-1.15c.35-.24,1.08-.83,2.19-1.78a3.82,3.82,0,0,1,1.75-1,2.15,2.15,0,0,1,1.66.5,2.07,2.07,0,0,1,.76,1.4,2.05,2.05,0,0,1-.63,1.69,13.58,13.58,0,0,1-8.3,4.56,7.83,7.83,0,0,1-6.18-1.89,8.27,8.27,0,0,1-2.94-5.53Q3.06,32.63,7,26.72q3.36-5,7.4-5.47a11.49,11.49,0,0,1,1.23-.09,7.63,7.63,0,0,1,1,0,2.27,2.27,0,0,1,1.57-.85,1.92,1.92,0,0,1,2.16,1.6,15.83,15.83,0,0,1,.6,3,2.43,2.43,0,0,1-.29,1.47A2,2,0,0,1,19.05,27.44Zm17.87,15a2.09,2.09,0,0,1-2.24-1.17,18,18,0,0,0-2.35-3q-2-2.25-2.52-2.19l-1.24.12.3,2.83c0,.13,0,.36.09.68s.08.57.09.74c.23,2-.41,3.12-1.91,3.28a2.43,2.43,0,0,1-1.56-.31,1.73,1.73,0,0,1-.84-1.34c0-.46-.11-1.17-.17-2.14s-.13-1.7-.18-2.16c-.1-.92-.29-2.3-.57-4.12s-.46-3.19-.56-4.1q-.27-2.46,1.95-2.7a2.3,2.3,0,0,1,1.56.34,1.8,1.8,0,0,1,.83,1.33c.08.75.24,2,.48,3.68a3,3,0,0,0,2.22-.93c.07-.08.35-.78.86-2.08.72-1.87,1.79-2.89,3.23-3a3.29,3.29,0,0,1,1.6.26c.71.27,1.1.64,1.15,1.13a1.65,1.65,0,0,1-.35,1.26,1.54,1.54,0,0,1-1.14.63c-.27,0-.6.55-1,1.56-.2.59-.42,1.18-.63,1.77a5.37,5.37,0,0,1-.58,1,16.68,16.68,0,0,1,3.49,3.15,7.18,7.18,0,0,1,2,3.4,1.66,1.66,0,0,1-.58,1.49A2.41,2.41,0,0,1,36.92,42.43Zm17.26-1.09c-.47,0-1.29-.38-2.44-1.3a19.83,19.83,0,0,1-2.4,1.3,5.91,5.91,0,0,1-1.81.56,7.36,7.36,0,0,1-5.84-1.38q-2.09-1.8-2.53-5.79A8.61,8.61,0,0,1,41.22,28a9.21,9.21,0,0,1,6.32-3.4,8.79,8.79,0,0,1,3.51.46c1.64.5,2.51,1.19,2.6,2.08a1.46,1.46,0,0,1-.24,1,10.56,10.56,0,0,0-.08,1.6c0,.62.07,1.36.16,2.19a15.36,15.36,0,0,0,.9,4.23c0,.09.33.6.89,1.54a8,8,0,0,1,.77,1.45,1.75,1.75,0,0,1-.48,1.44A2.15,2.15,0,0,1,54.18,41.34Zm-5-10.23q0-.49-.06-1.14t.06-1.47a2.62,2.62,0,0,0-.58-.15,1.31,1.31,0,0,0-.42,0,5,5,0,0,0-3.51,2.08,5.38,5.38,0,0,0-1.16,4,5.5,5.5,0,0,0,1.09,3.06,2.6,2.6,0,0,0,2.35.79,5.24,5.24,0,0,0,1.78-.51,5.72,5.72,0,0,0,1.53-1.13A51.1,51.1,0,0,1,49.15,31.11ZM71.2,39a2.21,2.21,0,0,1-1.62-.4,2,2,0,0,1-.78-1.38c-.1-.9-.3-2.51-.59-4.83l-.52,0a31.27,31.27,0,0,0-6.4,1.39c0,.4.06,1.14.07,2.21,0,.91.06,1.66.13,2.25A1.88,1.88,0,0,1,61,39.8a2.14,2.14,0,0,1-1.47.74,2.21,2.21,0,0,1-1.62-.4,1.93,1.93,0,0,1-.76-1.39,9.37,9.37,0,0,1,0-1.45,9.71,9.71,0,0,0,0-1.46c-.06-.58-.17-1.45-.33-2.6s-.27-2-.34-2.62-.17-1.51-.3-2.7-.21-2.1-.28-2.71a1.9,1.9,0,0,1,.45-1.51A2.2,2.2,0,0,1,57.83,23a2.22,2.22,0,0,1,1.61.41,1.85,1.85,0,0,1,.78,1.37c.08.67.18,1.49.31,2.48.18,1.38.29,2.19.32,2.45a33.39,33.39,0,0,1,6.85-1.3l0-.35c-.06-.52-.12-1.28-.19-2.27s-.13-1.74-.18-2.24A1.9,1.9,0,0,1,67.75,22a2.21,2.21,0,0,1,1.49-.74,2.15,2.15,0,0,1,1.6.4A2,2,0,0,1,71.62,23c.06.51.12,1.27.19,2.26s.13,1.74.18,2.25c.12,1.06.31,2.6.57,4.61s.46,3.55.58,4.61a1.88,1.88,0,0,1-.47,1.51A2.1,2.1,0,0,1,71.2,39ZM90.12,23.05Q88.83,26.76,86,34.71,84.45,39,83.71,41.77c-.15.67-.39,1.66-.71,3a2,2,0,0,1-1.83,1.68,2.33,2.33,0,0,1-1.62-.4,1.83,1.83,0,0,1-.82-1.37c-.11-1,.67-3.94,2.34-8.92-1.38-2.12-3.56-5.23-6.51-9.33l-.9-1.11A2.58,2.58,0,0,1,73.1,24a2,2,0,0,1,.5-1.55,2.18,2.18,0,0,1,1.47-.8,1.89,1.89,0,0,1,1.68.58,59.76,59.76,0,0,1,6.12,8.27c.84-2.58,1.35-4.13,1.53-4.67a44.78,44.78,0,0,1,1.71-4.3,2,2,0,0,1,1.71-1.32,2.31,2.31,0,0,1,1.62.41A1.85,1.85,0,0,1,90.28,22,2.36,2.36,0,0,1,90.12,23.05ZM110.46,33a1.9,1.9,0,0,1-.46,1.5,2.33,2.33,0,0,1-3.09.34,1.86,1.86,0,0,1-.78-1.36c-.07-.62-.14-1.56-.22-2.81s-.15-2.2-.22-2.82-.15-1.16-.27-1.79a31.23,31.23,0,0,1-4.56,6.3c-1.26,1.25-2.2,2.24-2.8,3A3.08,3.08,0,0,1,96,36.48a2.83,2.83,0,0,1-1.61-.26,1.7,1.7,0,0,1-1-1.39q-.45-4.11-1.1-8.57c-.46-3.08-.69-4.59-.68-4.53a1.94,1.94,0,0,1,.45-1.53,2.15,2.15,0,0,1,1.5-.76A2,2,0,0,1,95.94,21c.06.16.21,1.16.47,3l.81,5.9A48.61,48.61,0,0,0,101,25c.3-.45,1.42-2.18,3.34-5.19a3.17,3.17,0,0,1,2.3-1.66,2.23,2.23,0,0,1,1.6.42,1.88,1.88,0,0,1,.78,1.37q.18,1.61.6,4.83c.28,2.15.48,3.77.59,4.84.05.37.09.94.13,1.69S110.42,32.58,110.46,33ZM107,11.69q0,2.33-2.73,3.73a14.13,14.13,0,0,1-4.93,1.36,6.9,6.9,0,0,1-4.42-.91,4.24,4.24,0,0,1-2.31-3.28A1.33,1.33,0,0,1,93,11.48a1.93,1.93,0,0,1,1.22-.58,2,2,0,0,1,1.33.3,1.32,1.32,0,0,1,.63,1,1.61,1.61,0,0,0,1,1.23A3.08,3.08,0,0,0,99,13.8c2.72-.3,4.19-1,4.43-2.2A1.63,1.63,0,0,1,105,10.2a1.85,1.85,0,0,1,1.42.33A1.37,1.37,0,0,1,107,11.69Z" transform="translate(-3.56 -10.18)" fill="#131022"/><path d="M131.56,63.29a28.25,28.25,0,0,1,3.11,2.39,3,3,0,0,1,.75,2.08A2.9,2.9,0,0,1,134,69.58a30.2,30.2,0,0,1-5.83,1.81,8.55,8.55,0,0,1-3.64-.5c-.32-.08-.65-1-.75-1.53-.5-2.78-.9-5.59-1.38-8.38-.26-1.5.19-2.58,1.33-2.28S126,60,127.11,60.62c.47.24,1.18.46,1.51.17a9.24,9.24,0,0,0,1.83-2.35c2.68-4.44,5.14-9.08,5.44-15.08a24.93,24.93,0,0,0-.35-5.24A5,5,0,0,0,132.25,34c-.26-.09-.59-.12-.77-.35a10,10,0,0,1-.75-1.38c.38-.25.76-.74,1.14-.72,2.37.16,4.48,1.8,5.6,4.82a20.75,20.75,0,0,1-.23,15c-1.42,3.68-3.32,7-5,10.52-.24.48-.46,1-.68,1.44Z" transform="translate(-3.56 -10.18)" fill="#131022"/></svg>