<svg xmlns="http://www.w3.org/2000/svg" xmlns:xlink="http://www.w3.org/1999/xlink" viewBox="0 0 180 52"><defs><linearGradient id="a" x1="35.66" y1="245.08" x2="16.54" y2="225.5" gradientTransform="translate(0 -206)" gradientUnits="userSpaceOnUse"><stop offset="0" stop-color="#00a0ff"/><stop offset="0.01" stop-color="#00a1ff"/><stop offset="0.26" stop-color="#00beff"/><stop offset="0.51" stop-color="#00d2ff"/><stop offset="0.76" stop-color="#00dfff"/><stop offset="1" stop-color="#00e3ff"/></linearGradient><linearGradient id="b" x1="49.85" y1="232.12" x2="21.61" y2="232.12" gradientTransform="translate(0 -206)" gradientUnits="userSpaceOnUse"><stop offset="0" stop-color="#ffe000"/><stop offset="0.41" stop-color="#ffbd00"/><stop offset="0.78" stop-color="orange"/><stop offset="1" stop-color="#ff9c00"/></linearGradient><linearGradient id="c" x1="29.65" y1="238.91" x2="3.73" y2="212.36" gradientTransform="translate(0 -206)" gradientUnits="userSpaceOnUse"><stop offset="0" stop-color="#ff3a44"/><stop offset="1" stop-color="#c31162"/></linearGradient><linearGradient id="d" x1="9.71" y1="245.71" x2="21.28" y2="233.85" gradientTransform="translate(0 -206)" gradientUnits="userSpaceOnUse"><stop offset="0" stop-color="#32a071"/><stop offset="0.07" stop-color="#2da771"/><stop offset="0.48" stop-color="#15cf74"/><stop offset="0.8" stop-color="#06e775"/><stop offset="1" stop-color="#00f076"/></linearGradient></defs><rect width="180" height="52" rx="10" fill="#131022"/><path d="M66.5,15a3.06,3.06,0,0,1-.86,2.28,3.45,3.45,0,0,1-2.58,1,3.52,3.52,0,0,1-2.57-1,3.41,3.41,0,0,1-1.06-2.55,3.38,3.38,0,0,1,1.06-2.54,3.52,3.52,0,0,1,2.57-1,3.78,3.78,0,0,1,1.44.29,2.76,2.76,0,0,1,1.09.76l-.61.6a2.37,2.37,0,0,0-1.92-.8,2.71,2.71,0,0,0-1.91.75,2.6,2.6,0,0,0-.81,2,2.6,2.6,0,0,0,.81,2,2.91,2.91,0,0,0,3.91,0,2.08,2.08,0,0,0,.58-1.38H63.06v-.83h3.39A2.1,2.1,0,0,1,66.5,15Z" fill="#fff"/><path d="M71.88,12.11H68.7v2.16h2.87v.82H68.7v2.17h3.18v.84H67.8V11.27h4.08Z" fill="#fff"/><path d="M75.68,18.1h-.9v-6h-2v-.84h4.81v.84H75.68Z" fill="#fff"/><path d="M81.11,18.1V11.27H82V18.1Z" fill="#fff"/><path d="M86,18.1h-.89v-6h-2v-.84H88v.84H86Z" fill="#fff"/><path d="M97.07,17.22a3.61,3.61,0,1,1,1-2.54A3.46,3.46,0,0,1,97.07,17.22Zm-4.47-.57a2.76,2.76,0,0,0,3.8,0,2.67,2.67,0,0,0,.78-2,2.63,2.63,0,0,0-.78-2,2.72,2.72,0,0,0-3.8,0,2.63,2.63,0,0,0-.78,2A2.67,2.67,0,0,0,92.6,16.65Z" fill="#fff"/><path d="M99.37,18.1V11.27h1.09l3.4,5.31h0V11.27h.9V18.1h-.94l-3.56-5.58h0V18.1Z" fill="#fff"/><path d="M90.68,28.07a4.92,4.92,0,1,0,.17,0Zm0,7.79a2.94,2.94,0,1,1,2.81-3.07v.13a2.84,2.84,0,0,1-2.74,2.94ZM79.82,28.07a4.91,4.91,0,1,0,.19,0Zm0,7.79a2.94,2.94,0,1,1,2.79-3.09v.15a2.84,2.84,0,0,1-2.74,2.94Zm-12.93-6.3v2.06h5a4.15,4.15,0,0,1-1.14,2.58,5.23,5.23,0,0,1-3.89,1.51,5.47,5.47,0,1,1,0-10.94h0a5.42,5.42,0,0,1,3.79,1.47l1.49-1.45a7.46,7.46,0,0,0-5.28-2.08A7.73,7.73,0,0,0,59,30.24a7.72,7.72,0,0,0,7.83,7.52,7.13,7.13,0,0,0,5.38-2.11,6.71,6.71,0,0,0,1.82-4.81A6.82,6.82,0,0,0,74,29.56Zm52.87,1.59a4.6,4.6,0,0,0-4.25-3.08,4.66,4.66,0,0,0-4.68,4.64v.21a4.78,4.78,0,0,0,4.74,4.84h.18a5,5,0,0,0,4.14-2.14l-1.69-1.1a2.87,2.87,0,0,1-2.45,1.34,2.54,2.54,0,0,1-2.4-1.47L120,31.71ZM113,32.77a2.69,2.69,0,0,1,2.54-2.83h0a2,2,0,0,1,1.85,1Zm-5.39,4.7h2.18V23.23H107.6ZM104,29.15h0a3.52,3.52,0,0,0-2.61-1.08,4.85,4.85,0,0,0,0,9.69,3.4,3.4,0,0,0,2.61-1.1h0v.7c0,1.85-1,2.85-2.65,2.85a2.74,2.74,0,0,1-2.5-1.73l-1.9.77a4.75,4.75,0,0,0,4.4,2.87c2.56,0,4.72-1.47,4.72-5v-8.7H104Zm-2.49,6.71a2.95,2.95,0,0,1,0-5.88,2.76,2.76,0,0,1,2.65,2.86v.09a2.74,2.74,0,0,1-2.54,2.93h-.11ZM130,23.23h-5.22V37.47H127v-5.4h3a4.57,4.57,0,0,0,4.78-4.35v-.07A4.57,4.57,0,0,0,130,23.23Zm.05,6.86H127V25.21h3a2.44,2.44,0,0,1,0,4.88Zm13.46-2a4.09,4.09,0,0,0-3.88,2.18l1.93.79a2.38,2.38,0,0,1,3.29-.66,2.4,2.4,0,0,1,1,1.44V32a5,5,0,0,0-2.28-.55c-2.08,0-4.2,1.12-4.2,3.2a3.35,3.35,0,0,0,3.57,3.1H143a3.09,3.09,0,0,0,2.78-1.39h.08v1.1H148V32c0-2.54-2-3.95-4.47-3.95Zm-.27,7.8c-.71,0-1.7-.34-1.7-1.21,0-1.1,1.24-1.52,2.31-1.52a3.87,3.87,0,0,1,2,.48,2.62,2.62,0,0,1-2.63,2.21ZM155.6,28.4l-2.5,6.17H153l-2.58-6.17h-2.35L152,37l-2.22,4.8H152l6-13.43ZM136,37.47h2.18V23.23H136Z" fill="#fff"/><path d="M22.54,11.88a2.23,2.23,0,0,0-.54,1.6v25.2a2.28,2.28,0,0,0,.54,1.6l.09.08L37.09,26.24v-.33L22.63,11.8Z" fill="url(#a)"/><path d="M41.9,31l-4.81-4.71V26l4.82-4.71.11.06,5.71,3.17c1.62.9,1.62,2.39,0,3.29L42,30.89Z" fill="url(#b)"/><path d="M42,30.89l-4.93-4.81L22.54,40.28a2,2,0,0,0,2.43.07Z" fill="url(#c)"/><path d="M42,21.26,25,11.8a2,2,0,0,0-2.43.08l14.55,14.2Z" fill="url(#d)"/></svg>