<svg xmlns="http://www.w3.org/2000/svg" width="48" height="48" xmlns:xlink="http://www.w3.org/1999/xlink" viewBox="0 0 48 48"><defs><linearGradient id="c" x1="24" y1="48.11" x2="24" y2=".11" gradientTransform="translate(0 48.11) scale(1 -1)" gradientUnits="userSpaceOnUse"><stop offset="0" stop-color="#af2a32"/><stop offset="1" stop-color="#810e14"/></linearGradient></defs><g id="b"><circle cx="24" cy="24" r="24" fill="url(#c)"/><path d="m16.59,16.24c-4.09,0-7.41,3.48-7.41,7.76s3.32,7.76,7.41,7.76,7.41-3.48,7.41-7.76-3.32-7.76-7.41-7.76Zm0,12.71c-2.53,0-4.59-2.21-4.59-4.94s2.05-4.94,4.59-4.94,4.59,2.21,4.59,4.94-2.05,4.94-4.59,4.94Z" fill="#fff"/><polygon points="38.82 16.24 35.29 16.24 29.65 21.88 29.65 16.24 26.82 16.24 26.82 31.76 29.65 31.76 29.65 25.41 35.29 31.76 38.82 31.76 32.47 23.29 38.82 16.24" fill="#fff"/></g></svg>