<svg xmlns="http://www.w3.org/2000/svg" fill="none" viewBox="0 0 130 48"><ellipse cx="24.22" cy="24" fill="url(#a)" rx="24.22" ry="24"/><path fill="#fff" fill-rule="evenodd" d="M16.74 31.76A7.62 7.62 0 0 0 24.22 24a7.62 7.62 0 0 0-7.48-7.76A7.62 7.62 0 0 0 9.26 24a7.62 7.62 0 0 0 7.48 7.76Zm0-2.82c2.55 0 4.63-2.21 4.63-4.94 0-2.73-2.08-4.94-4.63-4.94-2.56 0-4.63 2.21-4.63 4.94 0 2.73 2.07 4.94 4.63 4.94Z" clip-rule="evenodd"/><path fill="#fff" d="M27.07 16.24h2.84v5.64l5.7-5.64h3.56l-6.4 7.05 6.4 8.47h-3.56l-5.7-6.35v6.35h-2.84V16.24Z"/><path fill="#212121" d="M69.08 24.82v.72c0 1.16-.16 2.2-.48 3.12-.31.92-.76 1.7-1.34 2.35a5.8 5.8 0 0 1-2.06 1.48 6.7 6.7 0 0 1-2.65.51c-.96 0-1.85-.17-2.65-.51A5.93 5.93 0 0 1 57.84 31a6.88 6.88 0 0 1-1.37-2.35 9.56 9.56 0 0 1-.47-3.12v-.72c0-1.17.16-2.2.47-3.12.32-.92.77-1.7 1.34-2.36a5.87 5.87 0 0 1 2.07-1.48c.8-.34 1.68-.51 2.65-.51s1.85.17 2.64.5c.8.35 1.5.85 2.07 1.5a6.75 6.75 0 0 1 1.35 2.35c.33.91.49 1.95.49 3.12Zm-3.2.72v-.74c0-.81-.07-1.52-.22-2.14a4.6 4.6 0 0 0-.65-1.55 2.82 2.82 0 0 0-1.06-.94 3.03 3.03 0 0 0-1.42-.32 2.84 2.84 0 0 0-2.47 1.27c-.28.41-.5.93-.64 1.54a9.2 9.2 0 0 0-.22 2.14v.74c0 .8.07 1.51.22 2.13.14.62.36 1.14.65 1.56.29.42.64.74 1.06.96.41.21.88.32 1.42.32a2.82 2.82 0 0 0 2.47-1.28c.28-.42.5-.94.64-1.56.15-.62.22-1.33.22-2.13Zm37.42-7.99V32.8h-3.17l-6.17-10.21V32.8H90.8V17.55h3.16l6.19 10.23V17.55h3.15Z"/><path fill="#212121" fill-rule="evenodd" d="M88.1 32.8V21.46h-3.05v11.32h3.05Z" clip-rule="evenodd"/><path fill="#AF2A32" d="M84.86 18.52c0-.44.16-.8.47-1.1.3-.28.72-.42 1.24-.42s.93.14 1.24.43c.31.29.47.65.47 1.09 0 .44-.16.8-.47 1.09-.31.28-.72.42-1.24.42s-.93-.14-1.24-.42a1.44 1.44 0 0 1-.47-1.1Z"/><path fill="#212121" d="M74.52 32.8h-3.17V17.54h3.17v6.98l1.4-1.9 3.91-5.08h3.88l-5.45 6.75 5.6 8.5h-3.74l-3.95-6.16-1.65 1.76v4.4Zm41.83-2.46v2.45h-10.3V17.55h10.3v2.46h-7.14v3.75h6.08v2.39h-6.08v4.2h7.14Zm8.93 2.46h-3.16V20h-4.65v-2.46H130V20h-4.72v12.8Z"/><defs><linearGradient id="a" x1="24.22" x2="24.22" y1="0" y2="48" gradientUnits="userSpaceOnUse"><stop stop-color="#AF2A32"/><stop offset="1" stop-color="#810E14"/></linearGradient></defs></svg>