<svg xmlns="http://www.w3.org/2000/svg" width="92" height="26" viewBox="0 0 92 26"><defs><linearGradient id="a" x1="1.69" x2="13.1" y1="26.86" y2="6.99" gradientTransform="matrix(1 0 0 -1 0 25.89)" gradientUnits="userSpaceOnUse"><stop offset=".2" stop-color="#f99048"/><stop offset=".33" stop-color="#fa874c"/><stop offset=".54" stop-color="#fb6f56"/><stop offset=".8" stop-color="#fd4767"/><stop offset="1" stop-color="#ff2576"/></linearGradient></defs><path fill="#212121" d="M28.52 8.48a3.72 3.72 0 0 1 2.31 3.61c0 .85-.21 1.57-.6 2.19a3.8 3.8 0 0 1-1.71 1.42c-.75.33-1.63.49-2.64.49h-2.3v3.11h-2.61V7.97h4.94c1.01 0 1.89.18 2.61.51Zm-.96 5.07c.41-.33.62-.82.62-1.44s-.21-1.13-.62-1.47a2.83 2.83 0 0 0-1.81-.51H23.6v3.94h2.15c.8-.03 1.4-.18 1.81-.51Zm8.23-2.75a4.72 4.72 0 0 1 1.79-.33v2.34c-.28-.03-.47-.03-.57-.03-.72 0-1.29.21-1.71.62-.41.41-.62 1-.62 1.83v4.12h-2.54V10.6h2.43v1.16c.31-.41.7-.75 1.22-.95Zm4.66 8.08a4.35 4.35 0 0 1-2.33-3.92 4.35 4.35 0 0 1 2.33-3.92c.72-.39 1.55-.57 2.48-.57s1.76.18 2.48.57a4.26 4.26 0 0 1 2.33 3.92 4.35 4.35 0 0 1-2.33 3.92c-.72.39-1.55.57-2.48.57s-1.73-.18-2.48-.57Zm4.09-2.16c.41-.44.62-1.03.62-1.75s-.21-1.31-.62-1.75c-.41-.44-.96-.64-1.6-.64s-1.19.21-1.6.64c-.41.44-.65 1.03-.65 1.75s.21 1.31.65 1.75c.44.44.96.64 1.6.64s1.19-.21 1.6-.64Zm13.04-6.13-3.7 8.73h-2.61l-3.67-8.73h2.61l2.43 5.92 2.51-5.92h2.43Zm.93-1.62a1.36 1.36 0 0 1 0-2c.28-.26.67-.41 1.14-.41s.85.13 1.14.39c.28.26.44.59.44.98 0 .41-.16.77-.44 1.06-.28.28-.67.41-1.14.41s-.83-.13-1.14-.41Zm-.13 1.62h2.54v8.73h-2.54v-8.73ZM71.87 7.3v12.02h-2.43v-1c-.62.75-1.55 1.13-2.74 1.13-.83 0-1.58-.18-2.25-.54a4.04 4.04 0 0 1-1.58-1.57c-.39-.67-.57-1.47-.57-2.37s.18-1.67.57-2.37c.39-.67.91-1.21 1.58-1.57a4.68 4.68 0 0 1 2.25-.54c1.11 0 1.99.36 2.61 1.06V7.3h2.56Zm-3.11 9.42c.41-.44.65-1.03.65-1.75s-.21-1.31-.65-1.75c-.44-.44-.96-.64-1.6-.64s-1.19.21-1.6.64c-.41.44-.65 1.03-.65 1.75s.21 1.31.65 1.75c.44.44.96.64 1.6.64s1.16-.21 1.6-.64Zm13.69-1.06h-6.62c.13.54.41.98.85 1.29.44.31 1.01.46 1.66.46a3.01 3.01 0 0 0 2.2-.85l1.35 1.47c-.83.95-2.02 1.42-3.62 1.42a5.6 5.6 0 0 1-2.61-.57 4.4 4.4 0 0 1-1.76-1.6 4.35 4.35 0 0 1-.62-2.32 4.42 4.42 0 0 1 4.68-4.49c.88 0 1.63.18 2.33.54.7.36 1.24.9 1.63 1.57.39.69.6 1.49.6 2.39 0 .03-.03.26-.05.67Zm-5.95-2.81c-.39.33-.62.77-.72 1.34h4.32c-.08-.54-.34-1-.72-1.31-.39-.33-.88-.49-1.42-.49s-1.06.15-1.45.46Z"/><path fill="#212121" d="m89.13 19.32-1.92-2.68-1.99 2.68h-2.77l3.36-4.4-3.26-4.32h2.85l1.86 2.55 1.92-2.55h2.69l-3.26 4.27L92 19.32h-2.87Z"/><path fill="url(#a)" d="M15 11.32C15 5.07 9.84 0 3.48 0H0v6.86h3.48c2.52 0 4.57 2.01 4.57 4.49S6 15.81 3.48 15.81h.02a3.45 3.45 0 0 1 3.48 3.42v2.88A11.35 11.35 0 0 0 15 11.33Z"/><path fill="#4d11e8" d="M6.95 11.32c0-1.89-1.56-3.42-3.48-3.42S-.01 9.43-.01 11.32s1.56 3.42 3.48 3.42 3.48-1.53 3.48-3.42ZM3.5 15.8h-.01a3.4 3.4 0 0 1 3.46 3.41v2.88c-1.09.36-2.26.54-3.48.54a3.45 3.45 0 0 1-3.48-3.42v6.78h6.98v-6.78a3.45 3.45 0 0 0-3.48-3.42Z"/><path fill="#a612e8" d="M3.48 22.64c1.22 0 2.39-.18 3.48-.54v-2.88a3.4 3.4 0 0 0-3.46-3.41h-.01c-1.92 0-3.48 1.53-3.48 3.42s1.56 3.42 3.48 3.42Z"/></svg>