<svg xmlns="http://www.w3.org/2000/svg" xmlns:xlink="http://www.w3.org/1999/xlink" style="display:none"><defs><linearGradient id="paint0_linear_4051_43238" x1="10" y1="0" x2="10" y2="20" gradientUnits="userSpaceOnUse"><stop stop-color="#00B2FF"/><stop offset="1" stop-color="#006AFF"/></linearGradient><clipPath id="clip0_4051_43238"><path fill="#fff" d="M0 0h20v20H0z"/></clipPath><linearGradient id="b" x1="20" x2="20" y1="1.28" y2="39.9" gradientTransform="matrix(1 0 0 -1 0 39.89)" gradientUnits="userSpaceOnUse"><stop offset="0" stop-color="#0062e0"/><stop offset="1" stop-color="#19afff"/></linearGradient><clipPath id="a"><path fill="none" stroke-width="0" d="M0 0h40v40H0z"/></clipPath><radialGradient id="paint0_radial_4051_43237" cx="0" cy="0" r="1" gradientUnits="userSpaceOnUse" gradientTransform="rotate(-90 13.084 7.303) scale(17.8393)"><stop stop-color="#FD5"/><stop offset=".1" stop-color="#FD5"/><stop offset=".5" stop-color="#FF543E"/><stop offset="1" stop-color="#C837AB"/></radialGradient><clipPath id="clip0_4051_43237"><path fill="#fff" d="M0 0h20v20H0z"/></clipPath><clipPath id="clip0_3959_29535"><path fill="#fff" d="M0 0h20v20H0z"/></clipPath><linearGradient id="b" x1="20" x2="20" y1="-.11" y2="39.89" gradientTransform="matrix(1 0 0 -1 0 39.89)" gradientUnits="userSpaceOnUse"><stop offset="0" stop-color="#1d93d2"/><stop offset="1" stop-color="#38b0e3"/></linearGradient><clipPath id="a"><path fill="none" stroke-width="0" d="M0 0h40v40H0z"/></clipPath><linearGradient id="paint0_linear_4051_43243" x1="10" y1=".625" x2="10" y2="19.236" gradientUnits="userSpaceOnUse"><stop stop-color="#2AABEE"/><stop offset="1" stop-color="#229ED9"/></linearGradient><clipPath id="clip0_4051_43243"><path fill="#fff" d="M0 0h20v20H0z"/></clipPath><clipPath id="clip0_4051_43239"><path fill="#fff" d="M0 0h20v20H0z"/></clipPath><clipPath id="a"><path fill="none" stroke-width="0" d="M0 0h40v40H0z"/></clipPath><clipPath id="a"><path fill="none" d="M0 0h40v40H0z"/></clipPath></defs><symbol id="battery"><path d="M31.96 3.86c-.05-.18-.18-.43-.3-.58-.18-.21-.46-.39-.76-.47-.1-.03-.22-.03-1.04-.04h-.93v-.48c0-.26 0-.55-.02-.64-.05-.42-.24-.81-.56-1.11-.29-.28-.66-.46-1.07-.52-.1-.01-3.52-.02-12.9-.01C2.65 0 1.61 0 1.5.04c-.19.05-.4.13-.58.23C.73.38.46.62.34.79c-.17.24-.28.52-.32.79C0 1.77 0 14.23.02 14.42c.11.77.76 1.41 1.56 1.55.15.03 1.4.03 12.88.03h2c10.65 0 10.87 0 11.06-.06s.02 0 .04-.01c.37-.11.77-.38 1-.7.18-.25.31-.57.34-.88 0-.09.02-.38.02-.64v-.48h.93c.83 0 .94-.01 1.04-.04.53-.15.93-.54 1.06-1.05.03-.13.04-.24.04-3.73s0-4.42-.04-4.55zm-4.2 4.56v1.11c0 4.68 0 4.84-.08 4.95v.01s-.01.02-.02.03c-.07.12-.2.23-.34.29l-.12.06H14.51c-12.63 0-12.7 0-12.82-.03a.734.734 0 01-.48-.46c-.04-.11-.04-.14-.04-5.98s0-6.69.04-6.8c.07-.21.27-.39.48-.46.12-.04.19-.04 12.82-.03H27.2l.12.06c.21.09.35.27.41.48.03.1.03 1.54.03 6.75zm3.08 0v3.46l-.04.08c-.03.06-.07.09-.12.12q-.08.04-.91.04h-.83V3.89h.83q.83 0 .91.04c.06.03.09.06.12.12l.04.08v4.28z"/><path d="M25.9 2.18H3.05c-.42 0-.76.33-.76.73v10.18c0 .4.34.73.76.73h22.86c.42 0 .76-.33.76-.73V2.91c0-.4-.34-.73-.76-.73zm-4.59 4.84c-.03.09-.09.17-.15.22-.03.02-.25.17-.5.31-.25.15-1.01.61-1.69 1.03-4.14 2.51-4.9 2.97-4.97 3.01-.05.02-.13.04-.21.04-.2.01-.3-.03-.45-.15l-.02-.02-.07-.07c-.08-.1-.08-.25-.08-1.04V9.16h-.07s-.99.12-2.12.25l-2.05.23-.13-.04c-.38-.1-.53-.51-.29-.8.04-.05.32-.23 1.2-.76.63-.38 1.48-.9 1.88-1.14 3.37-2.05 4.13-2.5 4.2-2.52.06-.02.13-.02.22-.02.25.01.44.15.51.35.04.1.04.15.04 1.11v1s2.33-.26 3.85-.44c.39-.04.46-.04.61.02.23.11.37.39.29.6z"/></symbol><symbol id="briefcase"><path d="M9.04 4.42c.24-.24.57-.38.91-.38h4.1a1.296 1.296 0 011.29 1.29v1.28H8.67V5.33c0-.34.14-.67.38-.91zM7.88 8.15h11.29a1.296 1.296 0 011.29 1.29v3.63c-2.64 1.26-5.53 1.91-8.46 1.91s-5.82-.65-8.46-1.91V9.44a1.296 1.296 0 011.29-1.29h3.06zM2 13.54V9.43A2.831 2.831 0 014.82 6.6h2.3V5.32a2.831 2.831 0 012.82-2.83h4.1c.75 0 1.47.3 1.99.83.53.53.83 1.25.83 2V6.6h2.31c.75 0 1.47.3 1.99.83.53.53.83 1.25.83 2v9.24a2.831 2.831 0 01-2.82 2.83H4.82c-.75 0-1.47-.3-1.99-.83-.53-.53-.83-1.25-.83-2v-5.14zm18.46 1.21v3.92a1.296 1.296 0 01-1.29 1.29H4.82a1.296 1.296 0 01-1.29-1.29v-3.92c2.67 1.16 5.55 1.76 8.46 1.76s5.79-.6 8.46-1.76zM12 11.74c.42 0 .77.34.77.77 0 .44-.34.78-.77.78s-.77-.34-.77-.77c0-.44.34-.78.77-.78z" fill-rule="evenodd"/></symbol><symbol id="burger"><path d="M20 18c.25 0 .5.1.69.27.19.17.3.41.31.67.01.25-.07.5-.23.7-.16.2-.4.32-.65.35H4c-.25 0-.5-.1-.69-.27-.19-.17-.3-.41-.31-.67s.07-.5.23-.7c.16-.2.4-.32.65-.35H20zm0-7c.27 0 .52.11.71.29s.29.44.29.71-.11.52-.29.71-.44.29-.71.29H4c-.27 0-.52-.11-.71-.29C3.1 12.52 3 12.27 3 12s.11-.52.29-.71A.99.99 0 014 11h16zm0-7c.27 0 .52.11.71.29.19.19.29.44.29.71s-.11.52-.29.71A.99.99 0 0120 6H4c-.27 0-.52-.11-.71-.29C3.1 5.52 3 5.27 3 5s.11-.52.29-.71A.99.99 0 014 4h16z"/></symbol><symbol id="check--yes"><path d="M12 2c5.52 0 10 4.48 10 10s-4.48 10-10 10S2 17.52 2 12 6.48 2 12 2zm0 2c-2.12 0-4.16.84-5.66 2.34S4 9.88 4 12s.84 4.16 2.34 5.66S9.88 20 12 20s4.16-.84 5.66-2.34S20 14.12 20 12s-.84-4.16-2.34-5.66A8.008 8.008 0 0012 4zm3.53 4.38c.18-.18.42-.29.68-.3.25 0 .5.08.7.25.19.17.31.4.33.66.02.25-.05.51-.21.71l-.08.09-5.59 5.59a1.09 1.09 0 01-1.46.08l-.1-.09-2.76-2.76c-.18-.18-.29-.42-.3-.68 0-.26.08-.5.25-.7.17-.19.4-.31.66-.33.25-.02.51.05.71.21l.09.08 2.12 2.12 4.95-4.95z"/></symbol><symbol id="clock"><path d="M12 2c5.52 0 10 4.48 10 10s-4.48 10-10 10S2 17.52 2 12 6.48 2 12 2zm0 2c-2.12 0-4.16.84-5.66 2.34S4 9.88 4 12s.84 4.16 2.34 5.66S9.88 20 12 20s4.16-.84 5.66-2.34S20 14.12 20 12s-.84-4.16-2.34-5.66A8.008 8.008 0 0012 4zm0 2c.24 0 .48.09.66.25.18.16.3.39.33.63v4.71l2.71 2.71c.18.18.28.42.29.68 0 .25-.08.5-.25.69a.98.98 0 01-.66.33c-.25.02-.51-.05-.71-.2l-.09-.08-3-3a.937.937 0 01-.28-.58v-.13-5c0-.27.11-.52.29-.71a.99.99 0 01.71-.29z"/></symbol><symbol id="close"><path d="M13.43 11.99l5.66-5.66c.18-.19.28-.44.28-.7 0-.26-.11-.51-.29-.7a.984.984 0 00-.7-.29c-.26 0-.51.1-.7.28l-5.66 5.66-5.66-5.66c-.19-.18-.44-.27-.7-.27-.26 0-.51.11-.69.29s-.29.43-.29.69c0 .26.09.51.27.7l5.66 5.66-5.66 5.66c-.1.09-.17.2-.22.32-.05.12-.08.25-.08.39 0 .13.02.26.07.39a1.004 1.004 0 00.55.55c.12.05.25.08.39.07.13 0 .26-.03.39-.08.12-.05.23-.13.32-.22l5.66-5.66 5.66 5.66c.19.18.44.28.7.28.26 0 .51-.11.7-.29.19-.19.29-.44.29-.7 0-.26-.1-.51-.28-.7L13.44 12z" fill-rule="evenodd"/></symbol><symbol id="down-quot-sm"><path d="M8.46 9.88c.19-.19.44-.29.71-.29s.52.11.71.29L12 12l2.12-2.12a.99.99 0 01.71-.29c.27 0 .52.11.71.29.19.19.29.44.29.71 0 .27-.11.52-.29.71l-2.83 2.83c-.19.19-.44.29-.71.29s-.52-.11-.71-.29L8.46 11.3c-.19-.19-.29-.44-.29-.71s.11-.52.29-.71z" fill-rule="evenodd"/></symbol><symbol id="down-quot"><path d="M12.72 15.54c-.19.19-.44.29-.71.29s-.52-.11-.71-.29L5.64 9.88c-.1-.09-.17-.2-.22-.32-.05-.12-.08-.25-.08-.39 0-.13.02-.26.07-.39s.12-.23.22-.33c.09-.09.21-.17.33-.22.12-.05.25-.08.39-.07.13 0 .26.03.39.08.12.05.23.13.32.22l4.95 4.95 4.95-4.95c.19-.18.44-.28.7-.28.26 0 .51.11.7.29.19.19.29.44.29.7s-.1.51-.28.7l-5.66 5.66z" fill-rule="evenodd"/></symbol><symbol id="facebook"><g fill="none"><g clip-path="url(#clip0_4051_43238)"><path fill-rule="evenodd" clip-rule="evenodd" d="M10 0c5.523 0 10 4.477 10 10s-4.477 10-10 10S0 15.523 0 10 4.477 0 10 0z" fill="url(#paint0_linear_4051_43238)"/><path d="M11.302 19.916V12.19h2.18l.288-2.719h-2.468l.004-1.36c0-.71.067-1.09 1.086-1.09h1.363v-2.72h-2.18c-2.618 0-3.54 1.32-3.54 3.538v1.633H6.403v2.719h1.632v7.616a10.061 10.061 0 003.267.11z" fill="#fff"/></g></g></symbol><symbol id="fb-share"><g clip-path="url(#a)"><path fill="url(#b)" d="M16.7 39.8C7.2 38.1 0 29.9 0 20 0 9 9 0 20 0s20 9 20 20c0 9.9-7.2 18.1-16.7 19.8l-1.1-.9h-4.4l-1.1.9z"/><path fill="#fff" d="M27.8 25.6l.9-5.6h-5.3v-3.9c0-1.6.6-2.8 3-2.8H29V8.2c-1.4-.2-3-.4-4.4-.4-4.6 0-7.8 2.8-7.8 7.8V20h-5v5.6h5v14.1a18.41 18.41 0 006.6 0V25.6h4.4z"/></g></symbol><symbol id="help"><path d="M12 3a9 9 0 10.001 18.001A9 9 0 0012 3zM1 12C1 5.92 5.92 1 12 1s11 4.92 11 11-4.92 11-11 11S1 18.08 1 12zm11.26-3.98c-.47-.08-.94 0-1.35.25-.41.24-.72.62-.87 1.06a1.003 1.003 0 01-1.89-.67c.31-.89.93-1.64 1.75-2.12.81-.48 1.77-.65 2.7-.49.93.16 1.78.64 2.38 1.37.61.72.94 1.64.94 2.58 0 1.53-1.14 2.54-1.95 3.08-.44.29-.86.5-1.18.64-.16.07-.29.12-.39.16-.05.02-.09.03-.12.04h-.03l-.01.02-.32-.95.32.95a1 1 0 01-1.26-.63 1 1 0 01.63-1.26h.02s.04-.02.07-.03l.29-.12c.25-.11.57-.27.88-.48.69-.46 1.05-.95 1.05-1.42s-.17-.93-.47-1.29c-.3-.36-.73-.6-1.19-.68zM12 16c-.55 0-1 .45-1 1s.45 1 1 1h.01c.55 0 1-.45 1-1s-.45-1-1-1H12z" fill-rule="evenodd"/></symbol><symbol id="home"><path d="M10.8 3.03c.35-.26.77-.4 1.2-.4s.85.14 1.2.4l7 5.25c.25.19.45.43.59.71.14.28.21.58.21.89v9.5c0 .53-.21 1.04-.59 1.41-.38.38-.88.59-1.41.59H5c-.53 0-1.04-.21-1.41-.59-.38-.38-.59-.88-.59-1.41v-9.5c0-.31.07-.62.21-.89.14-.28.34-.52.59-.71l7-5.25zm1.2 1.6L5 9.88v9.5h14v-9.5l-7-5.25z" fill-rule="evenodd"/></symbol><symbol id="instagram"><g fill="none"><g clip-path="url(#clip0_4051_43237)"><path d="M7 10a3 3 0 116 0 3 3 0 01-6 0zM5.38 10a4.621 4.621 0 109.242 0 4.621 4.621 0 00-9.242 0zm8.346-4.805a1.08 1.08 0 101.08-1.08 1.08 1.08 0 00-1.08 1.08zm-7.36 12.13c-.878-.04-1.355-.185-1.672-.309a2.799 2.799 0 01-1.035-.673 2.777 2.777 0 01-.674-1.034c-.123-.317-.27-.794-.31-1.672-.043-.948-.052-1.233-.052-3.637 0-2.403.01-2.687.053-3.637.04-.877.187-1.354.31-1.671.163-.42.358-.72.673-1.035.314-.316.614-.51 1.035-.674.317-.123.794-.27 1.671-.31.949-.043 1.234-.052 3.636-.052 2.403 0 2.688.01 3.638.053.877.04 1.353.187 1.671.31.42.162.72.358 1.035.673.316.314.51.615.673 1.035.124.317.27.794.31 1.671.044.95.052 1.234.052 3.637 0 2.404-.008 2.688-.052 3.637-.04.878-.187 1.355-.31 1.672-.163.42-.358.72-.673 1.034-.315.315-.615.51-1.035.673-.317.124-.794.27-1.671.31-.95.044-1.234.052-3.638.052-2.403 0-2.687-.008-3.636-.052zM6.29 1.056c-.958.043-1.613.195-2.185.418A4.418 4.418 0 002.511 2.51c-.501.5-.809 1.001-1.038 1.594-.223.572-.375 1.226-.418 2.184C1.01 7.25 1 7.556 1 10s.01 2.75.055 3.71c.043.959.195 1.613.418 2.185A4.4 4.4 0 002.51 17.49c.5.5 1.002.808 1.594 1.038.573.223 1.227.375 2.185.418.96.044 1.266.055 3.71.055 2.445 0 2.751-.01 3.711-.055.958-.043 1.612-.195 2.185-.418a4.426 4.426 0 001.594-1.038c.5-.5.808-1.002 1.038-1.594.223-.572.375-1.226.418-2.184.044-.96.054-1.267.054-3.711s-.01-2.75-.054-3.71c-.043-.959-.195-1.613-.418-2.185A4.425 4.425 0 0017.49 2.51c-.5-.501-1.002-.809-1.594-1.038-.573-.223-1.227-.376-2.184-.419-.96-.043-1.267-.054-3.71-.054-2.444 0-2.752.01-3.712.054" fill="url(#paint0_radial_4051_43237)"/></g></g></symbol><symbol id="left-quot-sm"><path d="M14.12 8.46c.19.19.29.44.29.71s-.11.52-.29.71L12 12l2.12 2.12a.995.995 0 01.3.7.995.995 0 01-.3.7.995.995 0 01-.7.3.995.995 0 01-.7-.3l-2.83-2.83c-.19-.19-.29-.44-.29-.71s.11-.52.29-.71l2.83-2.83c.19-.19.44-.29.71-.29s.52.11.71.29z" fill-rule="evenodd"/></symbol><symbol id="left-quot"><path d="M8.29 12.71C8.1 12.52 8 12.27 8 12s.11-.52.29-.71l5.66-5.66c.09-.1.2-.17.32-.22s.25-.08.39-.08c.13 0 .26.02.39.07s.23.12.33.22.17.21.22.33c.05.12.08.25.07.39 0 .13-.03.26-.08.39-.05.12-.13.23-.22.32L10.42 12l4.95 4.95c.18.19.28.44.28.7s-.11.51-.29.7c-.19.19-.44.29-.7.29-.26 0-.51-.1-.7-.28L8.3 12.7z" fill-rule="evenodd"/></symbol><symbol id="mail-box"><path d="M17.5 3c1.16 0 2.27.45 3.11 1.24.84.8 1.33 1.89 1.39 3.04v7.71c0 .5-.19.99-.53 1.36-.34.37-.81.6-1.32.63H17v3c0 .25-.1.5-.27.69a.94.94 0 01-.67.31c-.25.01-.5-.07-.7-.23a.98.98 0 01-.35-.65v-.12-3H4c-.5 0-.99-.19-1.36-.53-.37-.34-.6-.81-.63-1.32v-.15-7.5c0-1.16.45-2.27 1.24-3.11.8-.84 1.89-1.33 3.04-1.39H17.5zm0 2h-7.26c.43.64.7 1.4.75 2.22V15h9V7.5c0-.63-.24-1.25-.67-1.71-.43-.46-1.03-.74-1.66-.79h-.16zm-11 0c-.66 0-1.3.26-1.77.73S4 6.83 4 7.5V15h5V7.5c0-.66-.26-1.3-.73-1.77S7.17 5 6.5 5zM7 8c.25 0 .5.1.69.27.19.17.3.41.31.67.01.25-.07.5-.23.7-.16.2-.4.32-.65.35H6c-.25 0-.5-.1-.69-.27A.94.94 0 015 9.05c-.01-.25.07-.5.23-.7.16-.2.4-.32.65-.35H7z"/></symbol><symbol id="map-pin"><path d="M12 4a3.008 3.008 0 00-3 3 3.008 3.008 0 003 3c.8 0 1.56-.32 2.12-.88S15 7.79 15 7s-.32-1.56-.88-2.12S12.79 4 12 4zM7 7c0-.95.27-1.87.77-2.67.51-.8 1.23-1.44 2.08-1.84a5.004 5.004 0 015.31.64c.73.6 1.28 1.39 1.58 2.29.3.9.34 1.86.11 2.78-.23.92-.71 1.75-1.39 2.41-.68.66-1.54 1.1-2.46 1.29V17c0 .27-.11.52-.29.71-.19.19-.44.29-.71.29s-.52-.11-.71-.29A.99.99 0 0111 17v-5.1a4.958 4.958 0 01-2.87-1.74A4.99 4.99 0 017 7zm2.49 9.1c.02.13.01.26-.02.39a.88.88 0 01-.17.35c-.08.11-.18.2-.29.26-.11.07-.24.11-.37.13-1.28.19-2.29.49-2.96.82-1.22.6.21 1.03.95 1.26 1.33.42 3.22.69 5.36.69s4.03-.27 5.36-.69c.75-.23 2.17-.66.95-1.26-.67-.33-1.68-.62-2.96-.82a.963.963 0 01-.37-.13c-.11-.07-.21-.16-.29-.26a1.027 1.027 0 01-.19-.75c.02-.13.07-.26.13-.37.07-.11.16-.21.27-.29.11-.08.23-.13.36-.16.13-.03.26-.03.39-.01 1.39.21 2.62.55 3.54 1 .88.43 1.81 1.16 1.81 2.24 0 .81-.52 1.4-1.03 1.78-2.15 1.59-5.43 1.72-7.97 1.72-2.28 0-4.39-.29-5.95-.78-1.25-.39-3.05-1.16-3.05-2.72 0-1.08.93-1.81 1.81-2.24.92-.45 2.15-.79 3.54-1 .13-.02.26-.01.39.02s.25.09.35.17c.11.08.2.18.26.29.07.11.11.24.13.37z" fill-rule="evenodd"/></symbol><symbol id="minus-circle"><path d="M12 2c5.52 0 10 4.48 10 10s-4.48 10-10 10S2 17.52 2 12 6.48 2 12 2zm0 2c-2.12 0-4.16.84-5.66 2.34S4 9.88 4 12s.84 4.16 2.34 5.66S9.88 20 12 20s4.16-.84 5.66-2.34S20 14.12 20 12s-.84-4.16-2.34-5.66A8.008 8.008 0 0012 4zm4 7c.25 0 .5.1.69.27.19.17.3.41.31.67.01.25-.07.51-.23.7-.16.2-.4.32-.65.35H8c-.25 0-.5-.1-.69-.27a.94.94 0 01-.31-.67c-.01-.25.07-.51.23-.7.16-.2.4-.32.65-.35H16z"/></symbol><symbol id="minus"><path d="M3 12c0-.27.11-.52.29-.71A.99.99 0 014 11h16c.27 0 .52.11.71.29s.29.44.29.71-.11.52-.29.71-.44.29-.71.29H4c-.27 0-.52-.11-.71-.29A.99.99 0 013 12z" fill-rule="evenodd"/></symbol><symbol id="ok-pin" viewBox="0 0 22 28"><path d="M7.6 8.74c-1.16 0-2.1 1.01-2.1 2.26s.94 2.26 2.1 2.26S9.7 12.25 9.7 11s-.94-2.26-2.1-2.26z"/><path d="M18.77 3.23A10.95 10.95 0 0011 0C8.08 0 5.29 1.16 3.23 3.23A10.95 10.95 0 000 11c0 9.41 10 16.52 10.43 16.82.17.12.37.18.57.18s.41-.06.57-.18C12 27.52 22 20.41 22 11c0-2.92-1.16-5.71-3.23-7.77zM7.6 14.56c-1.88 0-3.4-1.59-3.4-3.56s1.52-3.56 3.4-3.56S11 9.03 11 11s-1.52 3.56-3.4 3.56zm10.19 0h-1.62l-2.59-2.91v2.91h-1.29V7.44h1.29v2.59l2.59-2.59h1.62l-2.91 3.24 2.91 3.88z"/></symbol><symbol id="phone-call"><path d="M7.01 2.29c1.26.92 2.22 2.21 3.03 3.4l.64.94a1.496 1.496 0 01-.17 1.91L9.15 9.9l.14.3c.35.71.95 1.73 1.86 2.64.7.7 1.47 1.22 2.1 1.58l.37.2.33.16.15.07 1.35-1.36a1.514 1.514 0 011.92-.17l1.01.7c1.15.81 2.35 1.73 3.29 2.93.16.21.26.46.3.72.03.26 0 .53-.11.77-.84 1.95-2.95 3.62-5.16 3.53l-.3-.02-.23-.02-.26-.03-.28-.04-.3-.05-.33-.06-.35-.08-.37-.09-.39-.11-.4-.13c-1.85-.63-4.19-1.86-6.59-4.26-2.4-2.4-3.63-4.75-4.26-6.59l-.13-.4-.11-.39-.09-.37-.08-.35-.06-.33-.05-.31-.04-.28-.03-.26-.02-.23-.02-.3c-.08-2.2 1.6-4.33 3.54-5.16a1.468 1.468 0 011.44.16zM6.08 4.1c-1.07.56-2.11 1.84-2.06 3.12l.02.33.02.21.03.23.04.25.05.28.07.3.08.32.1.34.11.36c.04.12.09.25.13.38l.15.39.18.41c.63 1.38 1.65 3 3.32 4.67s3.29 2.7 4.67 3.32l.41.18.39.15c.13.05.25.09.38.13l.36.11.34.1.32.08.3.07.28.05.25.04.23.03.2.02.33.02c1.26.05 2.55-.98 3.11-2.04-.71-.83-1.6-1.52-2.57-2.21l-.75-.52-.19.2-.41.44-.22.23c-.59.6-1.27 1.1-2.09.77l-.23-.09-.28-.12-.15-.07-.34-.17-.37-.2c-.94-.52-1.8-1.17-2.57-1.93-.75-.76-1.4-1.63-1.93-2.57l-.2-.37-.17-.34-.2-.43-.1-.23c-.31-.77.12-1.42.66-1.98L8 8.14l.56-.51.2-.19-.47-.69c-.7-1.02-1.39-1.94-2.24-2.63zm9.06 1.79h.12c.73.14 1.4.5 1.91 1.03s.85 1.21.95 1.94c.04.25-.03.51-.17.72-.15.21-.37.35-.62.4-.25.05-.51 0-.73-.13-.22-.14-.37-.35-.44-.6l-.02-.11c-.04-.29-.16-.56-.35-.77-.19-.22-.44-.38-.72-.46l-.16-.03a.965.965 0 01-.63-.39.999.999 0 01.16-1.36c.2-.16.45-.25.7-.23zm0-3.04c1.59 0 3.12.63 4.24 1.76a5.987 5.987 0 011.76 4.24c0 .25-.1.5-.27.69a.94.94 0 01-.67.31c-.25.01-.51-.07-.7-.23a.98.98 0 01-.35-.65v-.12c0-1.02-.39-1.99-1.09-2.73a4.007 4.007 0 00-2.66-1.26h-.26a1 1 0 01-.71-.3c-.19-.19-.29-.44-.29-.71s.11-.52.29-.71a.99.99 0 01.71-.29z"/></symbol><symbol id="play-ytb" viewBox="0 0 64 64"><path d="M48 5.4H16A10.61 10.61 0 005.4 16v32A10.61 10.61 0 0016 58.6h32A10.61 10.61 0 0058.6 48V16A10.61 10.61 0 0048 5.4zM56.6 48a8.6 8.6 0 01-8.6 8.6H16A8.6 8.6 0 017.4 48V16A8.6 8.6 0 0116 7.4h32a8.6 8.6 0 018.6 8.6z"/><path d="M44 32.27a3.18 3.18 0 00-1.84-2.6L27.48 18.85a3.25 3.25 0 00-3.09-.37 2.9 2.9 0 00-1.53 2.84l.06 21.27h1l-1 .06a3.31 3.31 0 001.49 2.91 3.34 3.34 0 003.19-.32h.05L42.17 35A3.45 3.45 0 0044 32.27zm-3 1l.57.82-.57-.75-14.45 10.12c-.78.43-1.15.35-1.25.29s-.37-.29-.43-1.24l-.06-21.24c0-.74.25-1 .38-1a1.24 1.24 0 011.15.24L41 31.29l.59-.8-.59.8h.05c.84.49.91.84.91.92s-.05.55-.91 1.11z"/></symbol><symbol id="plus"><path d="M11 20c0 .27.11.52.29.71s.44.29.71.29.52-.11.71-.29.29-.44.29-.71v-7h7c.27 0 .52-.11.71-.29s.29-.44.29-.71-.11-.52-.29-.71S20.27 11 20 11h-7V4c0-.27-.11-.52-.29-.71C12.52 3.1 12.27 3 12 3s-.52.11-.71.29A.99.99 0 0011 4v7H4c-.27 0-.52.11-.71.29-.19.19-.29.44-.29.71s.11.52.29.71c.19.19.44.29.71.29h7v7z"/></symbol><symbol id="quote-left"><path d="M9.8 6.4c.08.11.14.22.17.35a1.027 1.027 0 01-.11.76c-.07.11-.16.21-.26.29-1.56 1.17-2.46 2.31-2.97 3.31.7-.18 1.45-.14 2.13.12.68.26 1.26.73 1.66 1.33.4.61.61 1.32.58 2.05a3.48 3.48 0 01-.71 2.01 3.44 3.44 0 01-1.75 1.22c-.69.22-1.44.21-2.13-.02-.69-.23-1.29-.66-1.73-1.25-.43-.59-.67-1.29-.68-2.02-.13-1.23.05-2.47.51-3.61.6-1.51 1.76-3.15 3.89-4.74a.95.95 0 01.35-.17 1.027 1.027 0 01.76.11c.11.07.21.16.29.26zm7.6-.2c.1-.08.22-.14.35-.17a1.027 1.027 0 01.76.11c.11.07.21.16.29.26.08.11.14.22.17.35s.04.26.02.39-.06.26-.13.37-.16.21-.26.29c-1.56 1.17-2.46 2.31-2.97 3.31.7-.18 1.45-.14 2.13.12.68.26 1.26.73 1.66 1.33.4.61.61 1.32.58 2.05a3.48 3.48 0 01-.71 2.01 3.44 3.44 0 01-1.75 1.22c-.69.22-1.44.21-2.13-.02-.69-.23-1.29-.66-1.73-1.25-.43-.59-.67-1.29-.68-2.02-.13-1.23.05-2.47.51-3.61.6-1.51 1.76-3.15 3.89-4.74zM7.5 13c-.37 0-.73.14-1.01.39s-.45.59-.49.96v.16c0 .3.08.59.25.83.17.25.4.44.68.55a1.519 1.519 0 001.64-.33c.21-.21.35-.48.41-.77.06-.29.03-.59-.09-.87-.11-.27-.31-.51-.55-.67-.25-.16-.54-.25-.83-.25zm9 0c-.37 0-.73.14-1.01.39s-.45.59-.49.96v.16c0 .3.08.59.25.83.17.25.4.44.68.55a1.519 1.519 0 001.64-.33c.21-.21.35-.48.41-.77.06-.29.03-.59-.09-.87-.11-.27-.31-.51-.55-.67-.25-.16-.54-.25-.83-.25z" fill-rule="evenodd"/></symbol><symbol id="quote-right"><path d="M16.48 6c.92 0 1.8.36 2.45 1 .65.64 1.03 1.52 1.05 2.44.09.86.08 2.14-.51 3.61-.6 1.51-1.76 3.15-3.89 4.74a.95.95 0 01-.35.17c-.13.03-.26.04-.39.02-.26-.04-.5-.18-.66-.39a.982.982 0 01-.19-.74c.04-.26.18-.5.39-.66 1.56-1.17 2.46-2.31 2.97-3.31a3.516 3.516 0 01-3.02-.62c-.43-.33-.76-.75-1-1.23s-.36-1.01-.36-1.54c0-.93.37-1.82 1.03-2.47.66-.66 1.55-1.03 2.47-1.03zm-9 0c.92 0 1.8.36 2.45 1 .65.64 1.03 1.52 1.05 2.44.09.86.08 2.14-.51 3.61-.6 1.51-1.76 3.15-3.89 4.74-.11.08-.22.14-.35.17s-.26.04-.39.02c-.26-.04-.5-.18-.66-.39a.982.982 0 01-.19-.74c.04-.26.18-.5.39-.66 1.56-1.17 2.46-2.31 2.97-3.31-.52.13-1.06.14-1.58.04-.52-.11-1.01-.33-1.44-.66a3.62 3.62 0 01-1-1.23c-.24-.48-.36-1.01-.36-1.54 0-.93.37-1.82 1.03-2.47.66-.66 1.55-1.03 2.47-1.03zm9 2c-.29 0-.57.08-.82.24-.24.16-.44.38-.55.65a1.5 1.5 0 00.26 1.62c.19.22.45.37.73.44.28.07.58.07.85-.02.28-.09.52-.26.7-.48.18-.23.29-.5.32-.79V9.5c0-.4-.15-.78-.43-1.05-.28-.28-.66-.44-1.06-.44zm-9 0c-.29 0-.57.08-.82.24-.24.16-.44.38-.55.65a1.5 1.5 0 00.26 1.62c.19.22.45.37.73.44.28.07.58.07.85-.02.28-.09.52-.26.7-.48.18-.23.29-.5.32-.79V9.5c0-.4-.15-.78-.43-1.05-.28-.28-.66-.44-1.06-.44z" fill-rule="evenodd"/></symbol><symbol id="right-quot-sm"><path d="M9.88 8.46c-.19.19-.29.44-.29.71s.11.52.29.71L12 12l-2.12 2.12a.99.99 0 00-.29.71c0 .27.11.52.29.71.19.19.44.29.71.29.27 0 .52-.11.71-.29l2.83-2.83c.19-.19.29-.44.29-.71s-.11-.52-.29-.71L11.3 8.46c-.19-.19-.44-.29-.71-.29s-.52.11-.71.29z" fill-rule="evenodd"/></symbol><symbol id="right-quot"><path d="M15.54 11.28c.19.19.29.44.29.71s-.11.52-.29.71l-5.66 5.66c-.09.1-.2.17-.32.22-.12.05-.25.08-.39.08-.13 0-.26-.02-.39-.07a1.004 1.004 0 01-.55-.55.848.848 0 01-.07-.39c0-.13.03-.26.08-.39s.13-.23.22-.32l4.95-4.95-4.95-4.95c-.18-.19-.28-.44-.28-.7 0-.26.11-.51.29-.7.19-.19.44-.29.7-.29.26 0 .51.1.7.28l5.66 5.66z" fill-rule="evenodd"/></symbol><symbol id="tg-bot"><g fill="none"><g clip-path="url(#clip0_3959_29535)"><path d="M16.647.639A3.353 3.353 0 0120 3.992v8.94a3.353 3.353 0 01-3.353 3.353H11.06l-5.588 3.353v-3.353H3.236a3.353 3.353 0 01-3.353-3.353v-8.94A3.353 3.353 0 013.236.639h13.411z" fill="#27A5E5"/><path fill-rule="evenodd" clip-rule="evenodd" d="M7 6.838C7 6.375 7.375 6 7.838 6h.01a.838.838 0 010 1.676h-.01A.838.838 0 017 6.838zM11 6.838c0-.463.375-.838.838-.838h.01a.838.838 0 110 1.676h-.01A.838.838 0 0111 6.838zM6.252 10.24a.838.838 0 011.185.012 3.073 3.073 0 004.39 0 .838.838 0 011.198 1.173 4.75 4.75 0 01-6.786 0 .838.838 0 01.013-1.186z" fill="#fff"/></g></g></symbol><symbol id="tg-share"><g clip-path="url(#a)"><path fill="url(#b)" d="M20 40A20 20 0 1020.01.01 20 20 0 0020 40z"/><path fill="#c8daea" d="M13.54 21.46l2.37 6.57s.3.61.61.61 5.04-4.92 5.04-4.92l5.25-10.15-13.2 6.19-.08 1.7z"/><path fill="#a9c6d8" d="M16.68 23.15l-.46 4.84s-.19 1.48 1.29 0 2.9-2.63 2.9-2.63"/><path fill="#fff" d="M13.58 21.7L8.7 20.11s-.58-.24-.4-.77c.04-.11.12-.2.35-.37 1.08-.75 20.02-7.56 20.02-7.56s.53-.18.85-.06c.08.02.15.07.2.13.06.06.09.13.11.21.03.14.05.29.04.43l-.03.42c-.12 1.86-3.57 15.75-3.57 15.75s-.21.81-.95.84a1.38 1.38 0 01-.98-.38c-1.45-1.25-6.47-4.62-7.58-5.36-.02-.02-.05-.04-.06-.07s-.03-.05-.03-.08c-.02-.08.07-.18.07-.18s8.74-7.77 8.97-8.58c.02-.06-.05-.09-.14-.07-.58.21-10.64 6.57-11.75 7.27a.69.69 0 01-.25.02z"/></g></symbol><symbol id="tg"><g fill="none"><g clip-path="url(#clip0_4051_43243)"><circle cx="10" cy="10" r="7.5" fill="#fff"/><path fill-rule="evenodd" clip-rule="evenodd" d="M19.375 10a9.375 9.375 0 11-18.75 0 9.375 9.375 0 0118.75 0zm-9.04-2.454A440.5 440.5 0 004.87 9.901c-.444.176-.677.349-.698.518-.036.286.322.398.808.55l.205.066c.48.156 1.123.338 1.457.345.304.006.643-.12 1.018-.375 2.553-1.725 3.87-2.596 3.954-2.614.058-.014.14-.03.194.018.055.049.05.141.044.166-.036.15-1.438 1.455-2.164 2.13-.227.21-.387.36-.42.393a9.49 9.49 0 01-.22.218c-.445.428-.778.75.019 1.275.382.253.689.461.994.67.334.227.667.453 1.098.736.11.072.214.146.316.219.389.277.738.525 1.169.486.25-.023.51-.258.64-.96.31-1.662.922-5.258 1.063-6.741a1.649 1.649 0 00-.015-.369.396.396 0 00-.135-.254.612.612 0 00-.363-.11c-.353.007-.893.195-3.497 1.278z" fill="url(#paint0_linear_4051_43243)"/></g></g></symbol><symbol id="up-quot-sm"><path d="M15.54 14.12a.995.995 0 01-.7.3.995.995 0 01-.7-.3L12.02 12 9.9 14.12c-.19.19-.44.29-.71.29s-.52-.11-.71-.29-.29-.44-.29-.71c0-.27.11-.52.29-.71l2.83-2.83c.19-.19.44-.29.71-.29s.52.11.71.29l2.83 2.83c.19.19.29.44.29.71s-.11.52-.29.71z" fill-rule="evenodd"/></symbol><symbol id="up-quot"><path d="M11.29 8.47c.19-.19.44-.29.71-.29s.52.11.71.29l5.66 5.66c.18.19.28.44.28.7 0 .26-.11.51-.29.7-.19.19-.44.29-.7.29-.26 0-.51-.1-.7-.28l-4.95-4.95-4.95 4.95c-.19.18-.44.28-.7.28-.26 0-.51-.11-.7-.29s-.29-.44-.29-.7c0-.26.1-.51.28-.7l5.66-5.66z" fill-rule="evenodd"/></symbol><symbol id="user"><path d="M16 14a5.007 5.007 0 015 4.78V20c0 .5-.19.99-.53 1.36-.34.37-.81.6-1.32.63H5c-.5 0-.99-.19-1.36-.53-.37-.34-.6-.81-.63-1.32v-.15-1a5.007 5.007 0 014.78-5h8.22zm0 2H8c-.77 0-1.5.29-2.06.82-.56.52-.89 1.24-.94 2.01v1.18h14v-1c0-.77-.29-1.5-.82-2.06-.52-.56-1.24-.89-2.01-.94h-.18zM12 2c1.33 0 2.6.53 3.54 1.46C16.48 4.4 17 5.67 17 7s-.53 2.6-1.46 3.54C14.6 11.48 13.33 12 12 12s-2.6-.53-3.54-1.46C7.52 9.6 7 8.33 7 7s.53-2.6 1.46-3.54C9.4 2.52 10.67 2 12 2zm0 2a3.008 3.008 0 00-3 3 3.008 3.008 0 003 3c.8 0 1.56-.32 2.12-.88S15 7.79 15 7s-.32-1.56-.88-2.12S12.79 4 12 4z" fill-rule="evenodd"/></symbol><symbol id="viber-share"><path fill="#844b97" d="M20 40A20 20 0 1020.01.01 20 20 0 0020 40z"/><path fill="#fff" d="M29.98 21.56c-.64 5.26-4.4 5.6-5.09 5.82-2.12.53-4.31.72-6.48.56l-3.73 4.14v-4.77h-.03c-5.02-1.43-4.85-6.77-4.79-9.58.06-2.81.57-5.12 2.1-6.66 2.75-2.56 8.41-2.17 8.41-2.17 4.78 0 7.08 1.49 7.61 1.99 1.77 1.55 2.66 5.25 2.01 10.67m-.7-11.99c-.63-.59-3.17-2.48-8.82-2.51 0 0-6.67-.43-9.92 2.64-1.81 1.86-2.45 4.57-2.51 7.93-.07 3.36-.15 9.66 5.78 11.37v2.6s-.04 1.06.64 1.28c.82.26 1.28-.54 2.09-1.4.43-.47 1.02-1.17 1.47-1.71 2.53.24 5.08.04 7.54-.58.82-.27 5.46-.88 6.21-7.18.78-6.5-.38-10.6-2.46-12.46"/><path fill="#fff" d="M25.66 22.35s-.76-.65-1.13-.93c-.37-.28-.9-.61-1.22-.79a1.07 1.07 0 00-.72-.16 1.1 1.1 0 00-.65.35l-.49.63a.76.76 0 01-.33.23.78.78 0 01-.4.02 5.15 5.15 0 01-2.28-1.4 4.74 4.74 0 01-1.45-2.41v-.06a.81.81 0 010-.38 1 1 0 01.15-.35l.03-.02c.33-.31.94-.68 1.02-1.04.24-.62-.8-1.91-.96-2.13a9.87 9.87 0 00-1.03-1.2.98.98 0 00-.58-.25.97.97 0 00-.62.15h-.03c-1.31.89-1.78 1.4-1.66 2.16l.07.3a16.86 16.86 0 009.84 10.28 1.64 1.64 0 001.63-.45c.4-.37.75-.8 1.02-1.28a.98.98 0 00-.2-1.25m-3.15-4.61l-.11-.04a.15.15 0 01-.04-.11c0-.45-.14-.89-.43-1.24a1.74 1.74 0 00-1.17-.46.16.16 0 01-.11-.05c-.03-.03-.05-.07-.05-.11s.02-.08.05-.11a.16.16 0 01.11-.05c.5 0 .99.19 1.35.55.34.4.53.91.52 1.44 0 .04-.01.08-.04.11s-.06.05-.1.05"/><path fill="#fff" d="M24.01 18.29s-.08-.02-.11-.05a.15.15 0 01-.04-.11 3.49 3.49 0 00-2.02-3.44 4.4 4.4 0 00-1.51-.36.12.12 0 01-.1-.05.15.15 0 01-.04-.11c0-.04.02-.08.05-.1a.15.15 0 01.11-.04 4.08 4.08 0 012.83 1.28c.68.78 1.04 1.8.98 2.83 0 .04-.02.08-.04.11a.16.16 0 01-.11.05"/><path fill="#fff" d="M25.54 18.88s-.08-.02-.11-.05-.04-.07-.04-.11c0-.85-.14-1.68-.43-2.48a5.33 5.33 0 00-2.97-3.07 6 6 0 00-2.18-.43.16.16 0 01-.11-.05c-.03-.03-.05-.07-.05-.11s.02-.08.05-.11a.16.16 0 01.11-.05 5.86 5.86 0 014.17 1.71c.57.56 1 1.24 1.28 1.99.29.83.44 1.71.43 2.59 0 .04-.02.08-.04.11a.16.16 0 01-.11.05z"/></symbol><symbol id="viber"><g fill="none"><g clip-path="url(#clip0_4051_43239)"><path d="M9.499.003c-1.605.02-5.056.283-6.986 2.054C1.078 3.479.576 5.582.518 8.183.468 10.774.41 15.64 5.1 16.965v2.018s-.03.808.504.974c.658.208 1.032-.413 1.657-1.081l1.166-1.318c3.209.267 5.667-.348 5.95-.44.651-.208 4.32-.676 4.919-5.543.615-5.026-.3-8.193-1.95-9.626h-.01c-.498-.459-2.5-1.917-6.973-1.934 0 0-.332-.022-.865-.013zm.055 1.413c.455-.003.732.016.732.016 3.786.01 5.593 1.15 6.019 1.533 1.39 1.192 2.106 4.047 1.582 8.243-.498 4.069-3.473 4.326-4.024 4.502-.234.075-2.4.608-5.127.433 0 0-2.031 2.451-2.666 3.082-.1.111-.218.143-.293.127-.108-.026-.14-.16-.134-.342l.02-3.349c-3.979-1.1-3.744-5.25-3.702-7.419C2.01 6.074 2.417 4.3 3.628 3.1c1.63-1.474 4.56-1.673 5.925-1.683zm.3 2.168a.248.248 0 00-.25.247c0 .14.113.25.25.25a4.696 4.696 0 013.36 1.326c.907.882 1.35 2.067 1.367 3.616 0 .137.11.25.25.25v-.01a.25.25 0 00.25-.247 5.384 5.384 0 00-1.51-3.968c-.99-.967-2.243-1.465-3.717-1.465zm-3.295.573a.782.782 0 00-.51.1h-.014c-.357.21-.68.474-.954.785-.228.263-.352.53-.384.787-.02.153-.006.306.04.453l.016.01c.256.755.592 1.48 1.002 2.165.528.96 1.178 1.849 1.934 2.643l.022.032.036.027.022.026.027.022a12.92 12.92 0 002.65 1.943c1.1.6 1.767.882 2.168 1v.006c.117.036.224.052.332.052.341-.025.664-.164.918-.394.308-.274.57-.598.775-.957v-.006c.192-.361.127-.703-.15-.934a11.544 11.544 0 00-1.79-1.286c-.427-.231-.86-.091-1.036.143l-.374.472c-.192.234-.54.202-.54.202l-.01.006c-2.601-.664-3.295-3.297-3.295-3.297s-.033-.358.208-.541l.469-.377c.224-.183.38-.615.14-1.042a11.244 11.244 0 00-1.283-1.791.712.712 0 00-.42-.25h.001zm3.727.742c-.332 0-.332.501.003.501a3.14 3.14 0 012.207.957 2.913 2.913 0 01.749 2.142.251.251 0 00.25.248l.01.013a.253.253 0 00.251-.25c.023-.994-.286-1.827-.892-2.495-.608-.667-1.458-1.041-2.542-1.116h-.036zm.41 1.348c-.341-.01-.354.5-.015.51.823.043 1.223.46 1.276 1.316a.249.249 0 00.247.244h.01a.252.252 0 00.241-.267c-.059-1.116-.668-1.745-1.748-1.803h-.01z" fill="#7360F2"/></g></g></symbol><symbol id="wallet"><path d="M16 4c.25 0 .5.1.69.27.19.17.3.41.31.67.01.25-.07.5-.23.7-.16.2-.4.32-.65.35H5.5a.494.494 0 00-.4.8c.08.1.19.17.31.19H19c.5 0 .99.19 1.36.53.37.34.6.81.63 1.32v9.15c0 .5-.19.99-.53 1.36-.34.37-.81.6-1.32.63H4.99c-.5 0-.99-.19-1.36-.53-.37-.34-.6-.81-.63-1.32v-.15-11.5c0-.63.24-1.25.68-1.71.43-.46 1.03-.74 1.66-.79H16zM5 8.95V18h14V9H5.5c-.11 0-.23 0-.34-.02L5 8.95zM15.5 12a1.499 1.499 0 011.06 2.56 1.499 1.499 0 11-2.12-2.12c.28-.28.66-.44 1.06-.44z"/></symbol><symbol id="wapp"><g clip-path="url(#a)"><path fill="#25d366" d="M20 40A20 20 0 1020.01.01 20 20 0 0020 40z"/><path fill="#fff" d="M28.86 11.09a12.46 12.46 0 00-19.6 15.02l-1.77 6.45 6.6-1.73a12.47 12.47 0 0014.76-19.75zm-8.81 19.15c-1.86 0-3.68-.5-5.27-1.44l-.38-.22-3.92 1.03 1.04-3.82-.25-.39a10.36 10.36 0 118.76 4.85zm5.68-7.75c-.31-.16-1.84-.91-2.13-1.01-.29-.1-.49-.16-.7.16-.21.31-.8 1.01-.99 1.22-.18.21-.36.23-.67.08-.31-.16-1.31-.48-2.5-1.54a9.4 9.4 0 01-1.73-2.15c-.18-.31-.02-.48.14-.63.14-.14.31-.36.47-.55.16-.18.21-.31.31-.52a.56.56 0 00-.03-.54c-.08-.16-.7-1.69-.96-2.31-.25-.61-.51-.52-.7-.53l-.6-.01c-.21 0-.54.08-.83.39-.28.31-1.09 1.06-1.09 2.6s1.11 3.01 1.27 3.22c.16.21 2.19 3.35 5.31 4.7.74.32 1.32.51 1.77.66.74.24 1.42.2 1.96.12.6-.09 1.84-.75 2.1-1.48s.26-1.35.18-1.48c-.08-.13-.29-.21-.6-.36z"/></g></symbol><symbol id="x-share"><g fill="#212121"><g clip-path="url(#a)"><path d="M11.15 10.32L25.6 29.63h3.27L14.42 10.32h-3.27z"/><path d="M19.98.22a19.76 19.76 0 100 39.53 19.76 19.76 0 000-39.53zm4.84 30.96l-6.58-8.79-8.14 8.79H8.01l9.3-10.04L8.07 8.79h7.12l6.06 8.1 7.5-8.1h2.09l-8.65 9.35 9.76 13.05h-7.12z"/></g></g></symbol></svg>