<svg xmlns="http://www.w3.org/2000/svg" width="32" height="16" viewBox="0 0 32 16"><path d="m31.96,3.86c-.05-.18-.18-.43-.3-.58-.18-.21-.46-.39-.76-.47-.1-.03-.22-.03-1.04-.04h-.93s0-.48,0-.48c0-.26,0-.55-.02-.64-.05-.42-.24-.81-.56-1.11-.29-.28-.66-.46-1.07-.52-.1-.01-3.52-.02-12.9-.01C2.65,0,1.61,0,1.5.04c-.19.05-.4.13-.58.23-.19.11-.46.35-.58.52C.17,1.03.06,1.31.02,1.58,0,1.77,0,14.23.02,14.42c.11.77.76,1.41,1.56,1.55.15.03,1.4.03,12.88.03.7,0,1.37,0,2,0,10.65,0,10.87,0,11.06-.06,0,0,0,0,0,0h0s.02,0,.04-.01c.37-.11.77-.38,1-.7.18-.25.31-.57.34-.88,0-.09.02-.38.02-.64v-.48s.93,0,.93,0c.83,0,.94-.01,1.04-.04.53-.15.93-.54,1.06-1.05.03-.13.04-.24.04-3.73s0-4.42-.04-4.55Zm-4.2,4.56c0,.4,0,.77,0,1.11,0,4.68,0,4.84-.08,4.95,0,0,0,0,0,.01,0,0-.01.02-.02.03-.07.12-.2.23-.34.29l-.12.06h-12.69c-12.63,0-12.7,0-12.82-.03-.22-.06-.41-.25-.48-.46-.04-.11-.04-.14-.04-5.98s0-6.69.04-6.8c.07-.21.27-.39.48-.46.12-.04.19-.04,12.82-.03h12.69s.12.06.12.06c.21.09.35.27.41.48.03.1.03,1.54.03,6.75Zm3.08,0v3.46l-.04.08c-.03.06-.07.09-.12.12q-.08.04-.91.04h-.83V3.89h.83q.83,0,.91.04c.06.03.09.06.12.12l.04.08v4.28Z"/><path d="m25.9,2.18H3.05c-.42,0-.76.33-.76.73v10.18c0,.4.34.73.76.73h22.86c.42,0,.76-.33.76-.73V2.91c0-.4-.34-.73-.76-.73Zm-4.59,4.84c-.03.09-.09.17-.15.22-.03.02-.25.17-.5.31-.25.15-1.01.61-1.69,1.03-4.14,2.51-4.9,2.97-4.97,3.01-.05.02-.13.04-.21.04-.2.01-.3-.03-.45-.15l-.02-.02s-.05-.05-.07-.07c-.08-.1-.08-.25-.08-1.04v-1.19h-.07s-.99.12-2.12.25l-2.05.23-.13-.04c-.38-.1-.53-.51-.29-.8.04-.05.32-.23,1.2-.76.63-.38,1.48-.9,1.88-1.14,3.37-2.05,4.13-2.5,4.2-2.52.06-.02.13-.02.22-.02.25.01.44.15.51.35.04.1.04.15.04,1.11,0,.55,0,1,0,1,0,0,2.33-.26,3.85-.44.39-.04.46-.04.61.02.23.11.37.39.29.6Z"/></svg>