<svg xmlns="http://www.w3.org/2000/svg" width="24" height="24" viewBox="0 0 24 24"><path d="m20,18c.25,0,.5.1.69.27.19.17.3.41.31.67.01.25-.07.5-.23.7-.16.2-.4.32-.65.35h-.12s-16,0-16,0c-.25,0-.5-.1-.69-.27-.19-.17-.3-.41-.31-.67s.07-.5.23-.7c.16-.2.4-.32.65-.35h.12s16,0,16,0Zm0-7c.27,0,.52.11.71.29s.29.44.29.71-.11.52-.29.71-.44.29-.71.29H4c-.27,0-.52-.11-.71-.29-.19-.19-.29-.44-.29-.71s.11-.52.29-.71c.19-.19.44-.29.71-.29h16Zm0-7c.27,0,.52.11.71.29.19.19.29.44.29.71s-.11.52-.29.71c-.19.19-.44.29-.71.29H4c-.27,0-.52-.11-.71-.29-.19-.19-.29-.44-.29-.71s.11-.52.29-.71c.19-.19.44-.29.71-.29h16Z" /></svg>