<svg xmlns="http://www.w3.org/2000/svg" width="24" height="24" viewBox="0 0 24 24"><path d="m12,2c5.52,0,10,4.48,10,10s-4.48,10-10,10S2,17.52,2,12,6.48,2,12,2Zm0,2c-2.12,0-4.16.84-5.66,2.34-1.5,1.5-2.34,3.54-2.34,5.66s.84,4.16,2.34,5.66c1.5,1.5,3.54,2.34,5.66,2.34s4.16-.84,5.66-2.34c1.5-1.5,2.34-3.54,2.34-5.66s-.84-4.16-2.34-5.66c-1.5-1.5-3.54-2.34-5.66-2.34Zm3.53,4.38c.18-.18.42-.29.68-.3.25,0,.5.08.7.25.19.17.31.4.33.66.02.25-.05.51-.21.71l-.08.09-5.59,5.59c-.19.19-.44.3-.71.32-.27.02-.53-.07-.75-.24l-.1-.09-2.76-2.76c-.18-.18-.29-.42-.3-.68,0-.26.08-.5.25-.7.17-.19.4-.31.66-.33.25-.02.51.05.71.21l.09.08,2.12,2.12,4.95-4.95h0Z" /></svg>