<svg xmlns="http://www.w3.org/2000/svg" width="24" height="24" viewBox="0 0 24 24"><path d="m12,2c5.52,0,10,4.48,10,10s-4.48,10-10,10S2,17.52,2,12,6.48,2,12,2Zm0,2c-2.12,0-4.16.84-5.66,2.34-1.5,1.5-2.34,3.54-2.34,5.66s.84,4.16,2.34,5.66c1.5,1.5,3.54,2.34,5.66,2.34s4.16-.84,5.66-2.34c1.5-1.5,2.34-3.54,2.34-5.66s-.84-4.16-2.34-5.66c-1.5-1.5-3.54-2.34-5.66-2.34Zm0,2c.24,0,.48.09.66.25.18.16.3.39.33.63v.12s0,4.59,0,4.59l2.71,2.71c.18.18.28.42.29.68,0,.25-.08.5-.25.69-.17.19-.4.31-.66.33-.25.02-.51-.05-.71-.2l-.09-.08-3-3c-.16-.16-.26-.36-.28-.58v-.13s0-5,0-5c0-.27.11-.52.29-.71.19-.19.44-.29.71-.29Z" /></svg>