<svg xmlns="http://www.w3.org/2000/svg" width="24" height="24" viewBox="0 0 24 24"><path d="m13.43,11.99l5.66-5.66c.18-.19.28-.44.28-.7,0-.26-.11-.51-.29-.7-.19-.19-.44-.29-.7-.29-.26,0-.51.1-.7.28l-5.66,5.66-5.66-5.66c-.19-.18-.44-.27-.7-.27-.26,0-.51.11-.69.29s-.29.43-.29.69c0,.26.09.51.27.7l5.66,5.66-5.66,5.66c-.1.09-.17.2-.22.32-.05.12-.08.25-.08.39,0,.13.02.26.07.39.05.12.12.23.22.33.09.09.21.17.33.22.12.05.25.08.39.07.13,0,.26-.03.39-.08.12-.05.23-.13.32-.22l5.66-5.66,5.66,5.66c.19.18.44.28.7.28.26,0,.51-.11.7-.29.19-.19.29-.44.29-.7,0-.26-.1-.51-.28-.7l-5.66-5.66Z" fill-rule="evenodd" /></svg>