<svg width="20" height="20" viewBox="0 0 20 20" fill="none" xmlns="http://www.w3.org/2000/svg">
<g clip-path="url(#clip0_4051_43238)">
<path fill-rule="evenodd" clip-rule="evenodd" d="M10 0C15.5228 0 20 4.47716 20 10C20 15.5228 15.5228 20 10 20C4.47716 20 0 15.5228 0 10C0 4.47716 4.47716 0 10 0Z" fill="url(#paint0_linear_4051_43238)"/>
<path d="M11.302 19.9162V12.1905H13.4813L13.7702 9.47137H11.302L11.3056 8.11034C11.3056 7.40114 11.3731 7.02131 12.3923 7.02131H13.7549V4.30176H11.5751C8.95673 4.30176 8.03528 5.62074 8.03528 7.8392V9.47158H6.40308V12.1909H8.03528V19.8067C8.67114 19.9333 9.32852 20.0002 10.0016 20.0002C10.4364 20.0002 10.8708 19.9721 11.302 19.9162Z" fill="white"/>
</g>
<defs>
<linearGradient id="paint0_linear_4051_43238" x1="10" y1="0" x2="10" y2="20" gradientUnits="userSpaceOnUse">
<stop stop-color="#00B2FF"/>
<stop offset="1" stop-color="#006AFF"/>
</linearGradient>
<clipPath id="clip0_4051_43238">
<rect width="20" height="20" fill="white"/>
</clipPath>
</defs>
</svg>
