<svg xmlns="http://www.w3.org/2000/svg" width="40" height="40" viewBox="0 0 40 40"><defs><linearGradient id="b" x1="20" x2="20" y1="1.28" y2="39.9" gradientTransform="matrix(1 0 0 -1 0 39.89)" gradientUnits="userSpaceOnUse"><stop offset="0" stop-color="#0062e0"/><stop offset="1" stop-color="#19afff"/></linearGradient><clipPath id="a"><path fill="none" stroke-width="0" d="M0 0h40v40H0z"/></clipPath></defs><g clip-path="url(#a)"><path fill="url(#b)" d="M16.7 39.8C7.2 38.1 0 29.9 0 20 0 9 9 0 20 0s20 9 20 20c0 9.9-7.2 18.1-16.7 19.8l-1.1-.9h-4.4l-1.1.9Z"/><path fill="#fff" d="m27.8 25.6.9-5.6h-5.3v-3.9c0-1.6.6-2.8 3-2.8H29V8.2c-1.4-.2-3-.4-4.4-.4-4.6 0-7.8 2.8-7.8 7.8V20h-5v5.6h5v14.1a18.41 18.41 0 0 0 6.6 0V25.6h4.4Z"/></g></svg>