<svg xmlns="http://www.w3.org/2000/svg" width="24" height="24" viewBox="0 0 24 24"><path d="m12,3C7.03,3,3,7.03,3,12s4.03,9,9,9,9-4.03,9-9S16.97,3,12,3ZM1,12C1,5.92,5.92,1,12,1s11,4.92,11,11-4.92,11-11,11S1,18.08,1,12Zm11.26-3.98c-.47-.08-.94,0-1.35.25-.41.24-.72.62-.87,1.06-.18.52-.75.79-1.28.61-.52-.18-.79-.75-.61-1.28.31-.89.93-1.64,1.75-2.12.81-.48,1.77-.65,2.7-.49.93.16,1.78.64,2.38,1.37.61.72.94,1.64.94,2.58,0,1.53-1.14,2.54-1.95,3.08-.44.29-.86.5-1.18.64-.16.07-.29.12-.39.16-.05.02-.09.03-.12.04h-.03s-.01.02-.01.02h0s0,0,0,0t-.32-.95l.32.95c-.52.17-1.09-.11-1.26-.63-.17-.52.11-1.09.63-1.26h.02s.04-.02.07-.03c.07-.03.17-.07.29-.12.25-.11.57-.27.88-.48.69-.46,1.05-.95,1.05-1.42h0c0-.47-.17-.93-.47-1.29-.3-.36-.73-.6-1.19-.68Zm-.26,7.98c-.55,0-1,.45-1,1s.45,1,1,1h.01c.55,0,1-.45,1-1s-.45-1-1-1h-.01Z" fill-rule="evenodd"/></svg>