<svg width="20" height="20" viewBox="0 0 20 20" fill="none" xmlns="http://www.w3.org/2000/svg">
<g clip-path="url(#clip0_4051_43237)">
<path d="M7.00072 10C7.00072 8.34321 8.3435 6.99976 10.0004 6.99976C11.6572 6.99976 13.0007 8.34321 13.0007 10C13.0007 11.6568 11.6572 13.0002 10.0004 13.0002C8.3435 13.0002 7.00072 11.6568 7.00072 10ZM5.37878 10C5.37878 12.5524 7.44786 14.6214 10.0004 14.6214C12.5529 14.6214 14.6219 12.5524 14.6219 10C14.6219 7.4476 12.5529 5.37861 10.0004 5.37861C7.44786 5.37861 5.37886 7.44746 5.37886 10H5.37878ZM13.7249 5.19537C13.7248 5.40897 13.7881 5.6178 13.9067 5.79546C14.0253 5.97311 14.1939 6.1116 14.3913 6.19342C14.5886 6.27525 14.8057 6.29672 15.0153 6.25513C15.2248 6.21354 15.4173 6.11076 15.5684 5.95978C15.7195 5.8088 15.8224 5.6164 15.8642 5.40692C15.9059 5.19744 15.8846 4.98028 15.803 4.7829C15.7213 4.58552 15.5829 4.4168 15.4054 4.29805C15.2278 4.17931 15.019 4.11589 14.8054 4.1158H14.805C14.5186 4.11593 14.2441 4.2297 14.0416 4.43212C13.8391 4.63454 13.7252 4.90905 13.7249 5.19537ZM6.36421 17.3259C5.48672 17.2859 5.00977 17.1397 4.69281 17.0163C4.2726 16.8527 3.97278 16.6578 3.65755 16.3431C3.34233 16.0283 3.1472 15.7288 2.98433 15.3086C2.86077 14.9918 2.7146 14.5147 2.67471 13.6372C2.63108 12.6886 2.62237 12.4036 2.62237 10.0001C2.62237 7.59671 2.6318 7.31253 2.67471 6.36306C2.71468 5.4856 2.86192 5.00946 2.98433 4.69173C3.14792 4.27154 3.34276 3.97173 3.65755 3.65651C3.97235 3.3413 4.27188 3.14618 4.69281 2.98331C5.00962 2.85976 5.48672 2.7136 6.36421 2.67371C7.31292 2.63008 7.59791 2.62137 10.0004 2.62137C12.4028 2.62137 12.6881 2.63066 13.6376 2.67386C14.5151 2.71382 14.9912 2.86106 15.309 2.98346C15.7292 3.14632 16.029 3.34187 16.3442 3.65666C16.6595 3.97144 16.8539 4.27168 17.0175 4.69187C17.141 5.00867 17.2872 5.48574 17.3271 6.36321C17.3707 7.31267 17.3794 7.59686 17.3794 10.0003C17.3794 12.4037 17.3707 12.6879 17.3271 13.6374C17.2871 14.5148 17.1402 14.9918 17.0175 15.3087C16.8539 15.7289 16.659 16.0287 16.3442 16.3432C16.0294 16.6577 15.7292 16.8528 15.309 17.0164C14.9922 17.1399 14.5151 17.2861 13.6376 17.326C12.6889 17.3696 12.4039 17.3783 10.0004 17.3783C7.59683 17.3783 7.31264 17.3696 6.36421 17.326V17.3259ZM6.28969 1.0545C5.33155 1.09814 4.67683 1.25006 4.10505 1.47254C3.51326 1.70229 3.01162 2.01052 2.51069 2.51063C2.00977 3.01074 1.70232 3.51244 1.47255 4.10493C1.25007 4.67704 1.09814 5.33138 1.05451 6.28948C1.01015 7.2491 1 7.55589 1 10C1 12.4441 1.01015 12.7509 1.05451 13.7105C1.09814 14.6687 1.25007 15.323 1.47255 15.8951C1.70232 16.4868 2.00984 16.9895 2.51069 17.4894C3.01154 17.9893 3.51254 18.2971 4.10505 18.5275C4.67791 18.7499 5.33155 18.9019 6.28969 18.9455C7.24985 18.9891 7.55615 19 10.0004 19C12.4446 19 12.7514 18.9898 13.711 18.9455C14.6692 18.9019 15.3235 18.7499 15.8957 18.5275C16.4875 18.2971 16.9891 17.9895 17.49 17.4894C17.9909 16.9893 18.2978 16.4868 18.5282 15.8951C18.7507 15.323 18.9033 14.6686 18.9462 13.7105C18.9898 12.7502 19 12.4441 19 10C19 7.55589 18.9898 7.2491 18.9462 6.28948C18.9026 5.3313 18.7507 4.67668 18.5282 4.10493C18.2978 3.51316 17.9902 3.01154 17.49 2.51063C16.9899 2.00973 16.4875 1.70229 15.8964 1.47254C15.3235 1.25006 14.6692 1.09742 13.7117 1.0545C12.752 1.01066 12.4453 1 10.0014 1C7.55759 1 7.25021 1.01015 6.29005 1.0545" fill="url(#paint0_radial_4051_43237)"/>
</g>
<defs>
<radialGradient id="paint0_radial_4051_43237" cx="0" cy="0" r="1" gradientUnits="userSpaceOnUse" gradientTransform="translate(5.78127 20.3864) rotate(-90) scale(17.8393)">
<stop stop-color="#FFDD55"/>
<stop offset="0.1" stop-color="#FFDD55"/>
<stop offset="0.5" stop-color="#FF543E"/>
<stop offset="1" stop-color="#C837AB"/>
</radialGradient>
<clipPath id="clip0_4051_43237">
<rect width="20" height="20" fill="white"/>
</clipPath>
</defs>
</svg>
