<svg xmlns="http://www.w3.org/2000/svg" width="24" height="24" viewBox="0 0 24 24"><path d="m17.5,3c1.16,0,2.27.45,3.11,1.24.84.8,1.33,1.89,1.39,3.04v.21s0,7.5,0,7.5c0,.5-.19.99-.53,1.36-.34.37-.81.6-1.32.63h-.15s-3,0-3,0v3c0,.25-.1.5-.27.69-.17.19-.41.3-.67.31-.25.01-.5-.07-.7-.23-.2-.16-.32-.4-.35-.65v-.12s0-3,0-3H4c-.5,0-.99-.19-1.36-.53-.37-.34-.6-.81-.63-1.32v-.15s0-7.5,0-7.5c0-1.16.45-2.27,1.24-3.11.8-.84,1.89-1.33,3.04-1.39h.21s11,0,11,0Zm0,2h-7.26c.43.64.7,1.4.75,2.22v.28s0,7.5,0,7.5h9v-7.5c0-.63-.24-1.25-.67-1.71-.43-.46-1.03-.74-1.66-.79h-.16Zm-11,0c-.66,0-1.3.26-1.77.73-.47.47-.73,1.1-.73,1.77v7.5h5v-7.5c0-.66-.26-1.3-.73-1.77-.47-.47-1.1-.73-1.77-.73Zm.5,3c.25,0,.5.1.69.27.19.17.3.41.31.67.01.25-.07.5-.23.7-.16.2-.4.32-.65.35h-.12s-1,0-1,0c-.25,0-.5-.1-.69-.27-.19-.17-.3-.41-.31-.67-.01-.25.07-.5.23-.7.16-.2.4-.32.65-.35h.12s1,0,1,0Z" /></svg>