<svg xmlns="http://www.w3.org/2000/svg" width="24" height="24" viewBox="0 0 24 24"><path d="m12,4c-.39,0-.78.08-1.15.23-.36.15-.69.37-.97.65-.28.28-.5.61-.65.97-.15.36-.23.75-.23,1.15s.08.78.23,1.15c.15.36.37.69.65.97.28.28.61.5.97.65.36.15.75.23,1.15.23.8,0,1.56-.32,2.12-.88.56-.56.88-1.33.88-2.12s-.32-1.56-.88-2.12c-.56-.56-1.33-.88-2.12-.88Zm-5,3c0-.95.27-1.87.77-2.67.51-.8,1.23-1.44,2.08-1.84.85-.41,1.81-.56,2.75-.45.94.11,1.83.49,2.56,1.09.73.6,1.28,1.39,1.58,2.29.3.9.34,1.86.11,2.78-.23.92-.71,1.75-1.39,2.41-.68.66-1.54,1.1-2.46,1.29v5.1c0,.27-.11.52-.29.71-.19.19-.44.29-.71.29s-.52-.11-.71-.29c-.19-.19-.29-.44-.29-.71v-5.1c-1.13-.23-2.14-.84-2.87-1.74-.73-.89-1.13-2.01-1.13-3.16Zm2.49,9.1c.02.13.01.26-.02.39-.03.13-.09.25-.17.35-.08.11-.18.2-.29.26-.11.07-.24.11-.37.13-1.28.19-2.29.49-2.96.82-1.22.6.21,1.03.95,1.26,1.33.42,3.22.69,5.36.69s4.03-.27,5.36-.69c.75-.23,2.17-.66.95-1.26-.67-.33-1.68-.62-2.96-.82-.13-.02-.26-.06-.37-.13-.11-.07-.21-.16-.29-.26-.08-.11-.14-.23-.17-.36-.03-.13-.04-.26-.02-.39.02-.13.07-.26.13-.37.07-.11.16-.21.27-.29.11-.08.23-.13.36-.16.13-.03.26-.03.39-.01,1.39.21,2.62.55,3.54,1,.88.43,1.81,1.16,1.81,2.24,0,.81-.52,1.4-1.03,1.78-2.15,1.59-5.43,1.72-7.97,1.72-2.28,0-4.39-.29-5.95-.78-1.25-.39-3.05-1.16-3.05-2.72,0-1.08.93-1.81,1.81-2.24.92-.45,2.15-.79,3.54-1,.13-.02.26-.01.39.02.13.03.25.09.35.17.11.08.2.18.26.29.07.11.11.24.13.37Z" fill-rule="evenodd" /></svg>