<svg xmlns="http://www.w3.org/2000/svg" width="24" height="24" viewBox="0 0 24 24"><path d="m12,2c5.52,0,10,4.48,10,10s-4.48,10-10,10S2,17.52,2,12,6.48,2,12,2Zm0,2c-2.12,0-4.16.84-5.66,2.34-1.5,1.5-2.34,3.54-2.34,5.66s.84,4.16,2.34,5.66c1.5,1.5,3.54,2.34,5.66,2.34s4.16-.84,5.66-2.34c1.5-1.5,2.34-3.54,2.34-5.66s-.84-4.16-2.34-5.66c-1.5-1.5-3.54-2.34-5.66-2.34Zm4,7c.25,0,.5.1.69.27.19.17.3.41.31.67.01.25-.07.51-.23.7-.16.2-.4.32-.65.35h-.12s-8,0-8,0c-.25,0-.5-.1-.69-.27-.19-.17-.3-.41-.31-.67-.01-.25.07-.51.23-.7.16-.2.4-.32.65-.35h.12s8,0,8,0Z" /></svg>