<svg xmlns="http://www.w3.org/2000/svg" viewBox="0 0 22 28"><path d="m7.6,8.74c-1.16,0-2.1,1.01-2.1,2.26s.94,2.26,2.1,2.26,2.1-1.01,2.1-2.26-.94-2.26-2.1-2.26Z"/><path d="m18.77,3.23C16.71,1.16,13.92,0,11,0c-2.92,0-5.71,1.16-7.77,3.23C1.16,5.29,0,8.08,0,11c0,9.41,10,16.52,10.43,16.82.17.12.37.18.57.18s.41-.06.57-.18c.43-.3,10.43-7.41,10.43-16.82,0-2.92-1.16-5.71-3.23-7.77ZM7.6,14.56c-1.88,0-3.4-1.59-3.4-3.56s1.52-3.56,3.4-3.56,3.4,1.59,3.4,3.56-1.52,3.56-3.4,3.56Zm10.19,0h-1.62l-2.59-2.91v2.91h-1.29v-7.12h1.29v2.59l2.59-2.59h1.62l-2.91,3.24,2.91,3.88Z"/></svg>