<svg xmlns="http://www.w3.org/2000/svg" width="24" height="24" viewBox="0 0 24 24"><path d="m7.01,2.29c1.26.92,2.22,2.21,3.03,3.4l.64.94c.2.29.29.64.26.99-.03.35-.19.68-.43.92l-1.36,1.36.14.3c.35.71.95,1.73,1.86,2.64.7.7,1.47,1.22,2.1,1.58l.37.2.33.16.15.07,1.35-1.36c.25-.25.58-.4.93-.43.35-.03.7.06.99.26l1.01.7c1.15.81,2.35,1.73,3.29,2.93.16.21.26.46.3.72.03.26,0,.53-.11.77-.84,1.95-2.95,3.62-5.16,3.53l-.3-.02-.23-.02-.26-.03-.28-.04-.3-.05-.33-.06-.35-.08-.37-.09-.39-.11-.4-.13c-1.85-.63-4.19-1.86-6.59-4.26-2.4-2.4-3.63-4.75-4.26-6.59l-.13-.4-.11-.39-.09-.37-.08-.35c-.02-.11-.04-.22-.06-.33l-.05-.31-.04-.28-.03-.26-.02-.23-.02-.3c-.08-2.2,1.6-4.33,3.54-5.16.23-.1.49-.14.74-.11.25.03.5.12.7.27Zm-.93,1.81c-1.07.56-2.11,1.84-2.06,3.12l.02.33.02.21.03.23.04.25.05.28.07.3.08.32.1.34.11.36c.04.12.09.25.13.38l.15.39.18.41c.63,1.38,1.65,3,3.32,4.67,1.67,1.67,3.29,2.7,4.67,3.32l.41.18.39.15c.13.05.25.09.38.13l.36.11.34.1.32.08.3.07.28.05.25.04.23.03.2.02.33.02c1.26.05,2.55-.98,3.11-2.04-.71-.83-1.6-1.52-2.57-2.21l-.75-.52-.19.2-.41.44-.22.23c-.59.6-1.27,1.1-2.09.77l-.23-.09-.28-.12-.15-.07-.34-.17-.37-.2c-.94-.52-1.8-1.17-2.57-1.93-.75-.76-1.4-1.63-1.93-2.57l-.2-.37-.17-.34-.2-.43-.1-.23c-.31-.77.12-1.42.66-1.98l.22-.22.56-.51.2-.19-.47-.69c-.7-1.02-1.39-1.94-2.24-2.63h0Zm9.06,1.79h.12c.73.14,1.4.5,1.91,1.03.51.53.85,1.21.95,1.94.04.25-.03.51-.17.72-.15.21-.37.35-.62.4-.25.05-.51,0-.73-.13-.22-.14-.37-.35-.44-.6l-.02-.11c-.04-.29-.16-.56-.35-.77-.19-.22-.44-.38-.72-.46l-.16-.03c-.25-.04-.48-.18-.63-.39-.15-.2-.22-.46-.19-.71.03-.25.15-.49.35-.65.2-.16.45-.25.7-.23Zm0-3.04c1.59,0,3.12.63,4.24,1.76,1.13,1.13,1.76,2.65,1.76,4.24,0,.25-.1.5-.27.69-.17.19-.41.3-.67.31-.25.01-.51-.07-.7-.23-.2-.16-.32-.4-.35-.65v-.12c0-1.02-.39-1.99-1.09-2.73-.69-.74-1.64-1.19-2.66-1.26h-.26c-.27,0-.52-.11-.71-.3-.19-.19-.29-.44-.29-.71s.11-.52.29-.71c.19-.19.44-.29.71-.29Z" /></svg>