<svg xmlns="http://www.w3.org/2000/svg" viewBox="0 0 64 64"><path d="M48 5.4H16A10.61 10.61 0 0 0 5.4 16v32A10.61 10.61 0 0 0 16 58.6h32A10.61 10.61 0 0 0 58.6 48V16A10.61 10.61 0 0 0 48 5.4ZM56.6 48a8.6 8.6 0 0 1-8.6 8.6H16A8.6 8.6 0 0 1 7.4 48V16A8.6 8.6 0 0 1 16 7.4h32a8.6 8.6 0 0 1 8.6 8.6Z"/><path d="M44 32.27a3.18 3.18 0 0 0-1.84-2.6L27.48 18.85a3.25 3.25 0 0 0-3.09-.37 2.9 2.9 0 0 0-1.53 2.84l.06 21.27h1l-1 .06a3.31 3.31 0 0 0 1.49 2.91 3.34 3.34 0 0 0 3.19-.32h.05L42.17 35A3.45 3.45 0 0 0 44 32.27Zm-3 1 .57.82-.57-.75-14.45 10.12c-.78.43-1.15.35-1.25.29s-.37-.29-.43-1.24l-.06-21.24c0-.74.25-1 .38-1a1.24 1.24 0 0 1 1.15.24L41 31.29l.59-.8-.59.8h.05c.84.49.91.84.91.92s-.05.55-.91 1.11Z"/></svg>