<svg xmlns="http://www.w3.org/2000/svg" width="24" height="24" viewBox="0 0 24 24"><path d="m16.48,6c.92,0,1.8.36,2.45,1,.65.64,1.03,1.52,1.05,2.44.09.86.08,2.14-.51,3.61-.6,1.51-1.76,3.15-3.89,4.74-.11.08-.22.14-.35.17-.13.03-.26.04-.39.02-.26-.04-.5-.18-.66-.39-.16-.21-.23-.48-.19-.74.04-.26.18-.5.39-.66,1.56-1.17,2.46-2.31,2.97-3.31-.52.13-1.06.15-1.58.04-.52-.11-1.01-.33-1.44-.66s-.76-.75-1-1.23c-.24-.48-.36-1.01-.36-1.54,0-.93.37-1.82,1.03-2.47.66-.66,1.55-1.03,2.47-1.03Zm-9,0c.92,0,1.8.36,2.45,1,.65.64,1.03,1.52,1.05,2.44.09.86.08,2.14-.51,3.61-.6,1.51-1.76,3.15-3.89,4.74-.11.08-.22.14-.35.17s-.26.04-.39.02c-.26-.04-.5-.18-.66-.39-.16-.21-.23-.48-.19-.74.04-.26.18-.5.39-.66,1.56-1.17,2.46-2.31,2.97-3.31-.52.13-1.06.14-1.58.04-.52-.11-1.01-.33-1.44-.66-.42-.33-.76-.75-1-1.23-.24-.48-.36-1.01-.36-1.54,0-.93.37-1.82,1.03-2.47.66-.66,1.55-1.03,2.47-1.03Zm9,2c-.29,0-.57.08-.82.24-.24.16-.44.38-.55.65-.12.27-.16.56-.11.85.05.29.17.55.37.77.19.22.45.37.73.44.28.07.58.07.85-.02.28-.09.52-.26.7-.48.18-.23.29-.5.32-.79v-.16c0-.4-.15-.78-.43-1.05-.28-.28-.66-.44-1.06-.44Zm-9,0c-.29,0-.57.08-.82.24-.24.16-.44.38-.55.65-.12.27-.16.56-.11.85.05.29.17.55.37.77.19.22.45.37.73.44.28.07.58.07.85-.02.28-.09.52-.26.7-.48.18-.23.29-.5.32-.79v-.16c0-.4-.15-.78-.43-1.05-.28-.28-.66-.44-1.06-.44Z" fill-rule="evenodd" /></svg>