<svg xmlns="http://www.w3.org/2000/svg" width="24" height="24" viewBox="0 0 24 24"><path d="m9.8,6.4c.08.11.14.22.17.35.03.13.04.26.02.39-.02.13-.06.26-.13.37s-.16.21-.26.29c-1.56,1.17-2.46,2.31-2.97,3.31.7-.18,1.45-.14,2.13.12.68.26,1.26.73,1.66,1.33.4.61.61,1.32.58,2.05-.02.73-.27,1.43-.71,2.01-.44.58-1.05,1.01-1.75,1.22-.69.22-1.44.21-2.13-.02-.69-.23-1.29-.66-1.73-1.25-.43-.59-.67-1.29-.68-2.02-.13-1.23.05-2.47.51-3.61.6-1.51,1.76-3.15,3.89-4.74.11-.08.22-.14.35-.17.13-.03.26-.04.39-.02.13.02.26.06.37.13.11.07.21.16.29.26Zm7.6-.2c.1-.08.22-.14.35-.17.13-.03.26-.04.39-.02.13.02.26.06.37.13.11.07.21.16.29.26.08.11.14.22.17.35s.04.26.02.39-.06.26-.13.37-.16.21-.26.29c-1.56,1.17-2.46,2.31-2.97,3.31.7-.18,1.45-.14,2.13.12.68.26,1.26.73,1.66,1.33.4.61.61,1.32.58,2.05-.02.73-.27,1.43-.71,2.01-.44.58-1.05,1.01-1.75,1.22-.69.22-1.44.21-2.13-.02-.69-.23-1.29-.66-1.73-1.25-.43-.59-.67-1.29-.68-2.02-.13-1.23.05-2.47.51-3.61.6-1.51,1.76-3.15,3.89-4.74Zm-9.9,6.8c-.37,0-.73.14-1.01.39-.28.25-.45.59-.49.96v.16c0,.3.08.59.25.83.17.25.4.44.68.55.27.11.58.14.87.08.29-.06.56-.2.77-.41.21-.21.35-.48.41-.77.06-.29.03-.59-.09-.87-.11-.27-.31-.51-.55-.67-.25-.16-.54-.25-.83-.25Zm9,0c-.37,0-.73.14-1.01.39-.28.25-.45.59-.49.96v.16c0,.3.08.59.25.83.17.25.4.44.68.55.27.11.58.14.87.08.29-.06.56-.2.77-.41.21-.21.35-.48.41-.77.06-.29.03-.59-.09-.87-.11-.27-.31-.51-.55-.67-.25-.16-.54-.25-.83-.25Z" fill-rule="evenodd" /></svg>