<svg width="20" height="20" viewBox="0 0 20 20" fill="none" xmlns="http://www.w3.org/2000/svg">
<g clip-path="url(#clip0_3959_29535)">
<path d="M16.6471 0.638672C17.5364 0.638672 18.3892 0.991919 19.018 1.6207C19.6468 2.24949 20 3.1023 20 3.99154V12.9325C20 13.8217 19.6468 14.6746 19.018 15.3033C18.3892 15.9321 17.5364 16.2854 16.6471 16.2854H11.059L5.47092 19.6382V16.2854H3.23568C2.34644 16.2854 1.49363 15.9321 0.864844 15.3033C0.23606 14.6746 -0.117187 13.8217 -0.117188 12.9325V3.99154C-0.117187 3.1023 0.23606 2.24949 0.864844 1.6207C1.49363 0.991919 2.34644 0.638672 3.23568 0.638672H16.6471Z" fill="#27A5E5"/>
<path fill-rule="evenodd" clip-rule="evenodd" d="M7 6.83822C7 6.37528 7.37528 6 7.83822 6H7.84822C8.31115 6 8.68643 6.37528 8.68643 6.83822C8.68643 7.30115 8.31115 7.67643 7.84822 7.67643H7.83822C7.37528 7.67643 7 7.30115 7 6.83822Z" fill="white"/>
<path fill-rule="evenodd" clip-rule="evenodd" d="M11 6.83822C11 6.37528 11.3753 6 11.8382 6H11.8482C12.3112 6 12.6864 6.37528 12.6864 6.83822C12.6864 7.30115 12.3112 7.67643 11.8482 7.67643H11.8382C11.3753 7.67643 11 7.30115 11 6.83822Z" fill="white"/>
<path fill-rule="evenodd" clip-rule="evenodd" d="M6.25159 10.2395C6.58225 9.9155 7.11296 9.92092 7.43694 10.2516C7.72311 10.5437 8.06467 10.7757 8.44164 10.9341C8.8186 11.0925 9.22338 11.1741 9.63227 11.1741C10.0412 11.1741 10.4459 11.0925 10.8229 10.9341C11.1999 10.7757 11.5414 10.5437 11.8276 10.2516C12.1516 9.92092 12.6823 9.9155 13.013 10.2395C13.3436 10.5635 13.349 11.0942 13.0251 11.4248C12.5828 11.8762 12.0549 12.2348 11.4723 12.4796C10.8898 12.7244 10.2642 12.8505 9.63227 12.8505C9.00035 12.8505 8.37478 12.7244 7.7922 12.4796C7.20962 12.2348 6.68174 11.8762 6.23949 11.4248C5.9155 11.0942 5.92092 10.5635 6.25159 10.2395Z" fill="white"/>
</g>
<defs>
<clipPath id="clip0_3959_29535">
<rect width="20" height="20" fill="white"/>
</clipPath>
</defs>
</svg>
