<svg xmlns="http://www.w3.org/2000/svg" width="40" height="40" viewBox="0 0 40 40"><defs><linearGradient id="b" x1="20" x2="20" y1="-.11" y2="39.89" gradientTransform="matrix(1 0 0 -1 0 39.89)" gradientUnits="userSpaceOnUse"><stop offset="0" stop-color="#1d93d2"/><stop offset="1" stop-color="#38b0e3"/></linearGradient><clipPath id="a"><path fill="none" stroke-width="0" d="M0 0h40v40H0z"/></clipPath></defs><g clip-path="url(#a)"><path fill="url(#b)" d="M20 40A20 20 0 1 0 20.01.01 20 20 0 0 0 20 40Z"/><path fill="#c8daea" d="m13.54 21.46 2.37 6.57s.3.61.61.61 5.04-4.92 5.04-4.92l5.25-10.15-13.2 6.19-.08 1.7Z"/><path fill="#a9c6d8" d="m16.68 23.15-.46 4.84s-.19 1.48 1.29 0 2.9-2.63 2.9-2.63"/><path fill="#fff" d="M13.58 21.7 8.7 20.11s-.58-.24-.4-.77c.04-.11.12-.2.35-.37 1.08-.75 20.02-7.56 20.02-7.56s.53-.18.85-.06c.08.02.15.07.2.13.06.06.09.13.11.21.03.14.05.29.04.43l-.03.42c-.12 1.86-3.57 15.75-3.57 15.75s-.21.81-.95.84a1.38 1.38 0 0 1-.98-.38c-1.45-1.25-6.47-4.62-7.58-5.36-.02-.02-.05-.04-.06-.07s-.03-.05-.03-.08c-.02-.08.07-.18.07-.18s8.74-7.77 8.97-8.58c.02-.06-.05-.09-.14-.07-.58.21-10.64 6.57-11.75 7.27a.69.69 0 0 1-.25.02Z"/></g></svg>