<svg width="20" height="20" viewBox="0 0 20 20" fill="none" xmlns="http://www.w3.org/2000/svg">
<g clip-path="url(#clip0_4051_43243)">
<circle cx="10" cy="10" r="7.5" fill="white"/>
<path fill-rule="evenodd" clip-rule="evenodd" d="M19.375 10C19.375 15.1773 15.1773 19.375 10 19.375C4.82266 19.375 0.625 15.1773 0.625 10C0.625 4.82266 4.82266 0.625 10 0.625C15.1773 0.625 19.375 4.82266 19.375 10ZM10.3359 7.54609C9.42422 7.925 7.60156 8.71016 4.86875 9.90078C4.425 10.0773 4.19219 10.25 4.17109 10.4187C4.13516 10.7047 4.49297 10.8172 4.97891 10.9695C5.04531 10.9906 5.11406 11.0117 5.18437 11.0352C5.66328 11.1906 6.30703 11.3727 6.64141 11.3797C6.94531 11.3859 7.28438 11.2609 7.65859 11.0047C10.2117 9.28047 11.5297 8.40937 11.6125 8.39062C11.6711 8.37734 11.7523 8.36016 11.807 8.40937C11.8617 8.45781 11.8563 8.55 11.8508 8.575C11.8148 8.72578 10.4133 10.0297 9.68672 10.7047C9.46016 10.9148 9.3 11.0641 9.26719 11.0984C9.19375 11.1742 9.11875 11.2469 9.04688 11.3164C8.60156 11.7445 8.26875 12.0664 9.06563 12.5914C9.44844 12.8438 9.75469 13.0523 10.0602 13.2602C10.3938 13.4875 10.7266 13.7141 11.1578 13.9969C11.2672 14.0687 11.3719 14.143 11.4742 14.2156C11.8625 14.493 12.2117 14.7414 12.643 14.7023C12.893 14.6789 13.1523 14.4437 13.2836 13.7414C13.5937 12.0805 14.2047 8.48359 14.3461 7.00078C14.3547 6.87767 14.3495 6.75398 14.3305 6.63203C14.3191 6.53354 14.2711 6.44291 14.1961 6.37812C14.0844 6.28672 13.9109 6.26719 13.8328 6.26875C13.4805 6.275 12.9398 6.46328 10.3359 7.54609Z" fill="url(#paint0_linear_4051_43243)"/>
</g>
<defs>
<linearGradient id="paint0_linear_4051_43243" x1="10" y1="0.625" x2="10" y2="19.2359" gradientUnits="userSpaceOnUse">
<stop stop-color="#2AABEE"/>
<stop offset="1" stop-color="#229ED9"/>
</linearGradient>
<clipPath id="clip0_4051_43243">
<rect width="20" height="20" fill="white"/>
</clipPath>
</defs>
</svg>
