<svg xmlns="http://www.w3.org/2000/svg" width="24" height="24" viewBox="0 0 24 24"><path d="m16,14c1.29,0,2.53.5,3.46,1.39.93.89,1.48,2.11,1.54,3.39v.22s0,1,0,1c0,.5-.19.99-.53,1.36-.34.37-.81.6-1.32.63h-.15s-14,0-14,0c-.5,0-.99-.19-1.36-.53-.37-.34-.6-.81-.63-1.32v-.15s0-1,0-1c0-1.29.5-2.53,1.39-3.46.89-.93,2.11-1.48,3.39-1.54h.22s8,0,8,0Zm0,2H8c-.77,0-1.5.29-2.06.82-.56.52-.89,1.24-.94,2.01v.18s0,1,0,1h14v-1c0-.77-.29-1.5-.82-2.06-.52-.56-1.24-.89-2.01-.94h-.18ZM12,2c1.33,0,2.6.53,3.54,1.46.94.94,1.46,2.21,1.46,3.54s-.53,2.6-1.46,3.54c-.94.94-2.21,1.46-3.54,1.46s-2.6-.53-3.54-1.46c-.94-.94-1.46-2.21-1.46-3.54s.53-2.6,1.46-3.54c.94-.94,2.21-1.46,3.54-1.46Zm0,2c-.39,0-.78.08-1.15.23-.36.15-.69.37-.97.65-.28.28-.5.61-.65.97-.15.36-.23.75-.23,1.15s.08.78.23,1.15c.15.36.37.69.65.97.28.28.61.5.97.65.36.15.75.23,1.15.23.8,0,1.56-.32,2.12-.88.56-.56.88-1.33.88-2.12s-.32-1.56-.88-2.12c-.56-.56-1.33-.88-2.12-.88Z" fill-rule="evenodd" /></svg>