<svg xmlns="http://www.w3.org/2000/svg" width="40" height="40" viewBox="0 0 40 40"><path fill="#844b97" d="M20 40A20 20 0 1 0 20.01.01 20 20 0 0 0 20 40Z"/><path fill="#fff" d="M29.98 21.56c-.64 5.26-4.4 5.6-5.09 5.82-2.12.53-4.31.72-6.48.56l-3.73 4.14v-4.77h-.03c-5.02-1.43-4.85-6.77-4.79-9.58.06-2.81.57-5.12 2.1-6.66 2.75-2.56 8.41-2.17 8.41-2.17 4.78 0 7.08 1.49 7.61 1.99 1.77 1.55 2.66 5.25 2.01 10.67m-.7-11.99c-.63-.59-3.17-2.48-8.82-2.51 0 0-6.67-.43-9.92 2.64-1.81 1.86-2.45 4.57-2.51 7.93-.07 3.36-.15 9.66 5.78 11.37v2.6s-.04 1.06.64 1.28c.82.26 1.28-.54 2.09-1.4.43-.47 1.02-1.17 1.47-1.71 2.53.24 5.08.04 7.54-.58.82-.27 5.46-.88 6.21-7.18.78-6.5-.38-10.6-2.46-12.46"/><path fill="#fff" d="M25.66 22.35s-.76-.65-1.13-.93c-.37-.28-.9-.61-1.22-.79a1.07 1.07 0 0 0-.72-.16 1.1 1.1 0 0 0-.65.35l-.49.63a.76.76 0 0 1-.33.23.78.78 0 0 1-.4.02 5.15 5.15 0 0 1-2.28-1.4 4.74 4.74 0 0 1-1.45-2.41v-.06a.81.81 0 0 1 0-.38 1 1 0 0 1 .15-.35l.03-.02c.33-.31.94-.68 1.02-1.04.24-.62-.8-1.91-.96-2.13a9.87 9.87 0 0 0-1.03-1.2.98.98 0 0 0-.58-.25.97.97 0 0 0-.62.15h-.03c-1.31.89-1.78 1.4-1.66 2.16l.07.3a16.86 16.86 0 0 0 9.84 10.28 1.64 1.64 0 0 0 1.63-.45c.4-.37.75-.8 1.02-1.28a.98.98 0 0 0-.2-1.25m-3.15-4.61-.11-.04a.15.15 0 0 1-.04-.11c0-.45-.14-.89-.43-1.24a1.74 1.74 0 0 0-1.17-.46.16.16 0 0 1-.11-.05c-.03-.03-.05-.07-.05-.11s.02-.08.05-.11a.16.16 0 0 1 .11-.05c.5 0 .99.19 1.35.55.34.4.53.91.52 1.44 0 .04-.01.08-.04.11s-.06.05-.1.05"/><path fill="#fff" d="M24.01 18.29s-.08-.02-.11-.05a.15.15 0 0 1-.04-.11 3.49 3.49 0 0 0-2.02-3.44 4.4 4.4 0 0 0-1.51-.36.12.12 0 0 1-.1-.05.15.15 0 0 1-.04-.11c0-.04.02-.08.05-.1a.15.15 0 0 1 .11-.04 4.08 4.08 0 0 1 2.83 1.28c.68.78 1.04 1.8.98 2.83 0 .04-.02.08-.04.11a.16.16 0 0 1-.11.05"/><path fill="#fff" d="M25.54 18.88s-.08-.02-.11-.05-.04-.07-.04-.11c0-.85-.14-1.68-.43-2.48a5.33 5.33 0 0 0-2.97-3.07 6 6 0 0 0-2.18-.43.16.16 0 0 1-.11-.05c-.03-.03-.05-.07-.05-.11s.02-.08.05-.11a.16.16 0 0 1 .11-.05 5.86 5.86 0 0 1 4.17 1.71c.57.56 1 1.24 1.28 1.99.29.83.44 1.71.43 2.59 0 .04-.02.08-.04.11a.16.16 0 0 1-.11.05Z"/></svg>