<svg xmlns="http://www.w3.org/2000/svg" width="24" height="24" viewBox="0 0 24 24"><path d="m16,4c.25,0,.5.1.69.27.19.17.3.41.31.67.01.25-.07.5-.23.7-.16.2-.4.32-.65.35h-.12s-10.5,0-10.5,0c-.12,0-.25.05-.34.13-.09.08-.15.2-.16.32-.01.12.02.25.1.35.08.1.19.17.31.19h.09s13.5,0,13.5,0c.5,0,.99.19,1.36.53.37.34.6.81.63,1.32v.15s0,9,0,9c0,.5-.19.99-.53,1.36-.34.37-.81.6-1.32.63h-.15s-14,0-14,0c-.5,0-.99-.19-1.36-.53-.37-.34-.6-.81-.63-1.32v-.15s0-11.5,0-11.5c0-.63.24-1.25.68-1.71.43-.46,1.03-.74,1.66-.79h.16s10.5,0,10.5,0Zm-11,4.95v9.05h14v-9H5.5c-.11,0-.23,0-.34-.02l-.16-.03Zm10.5,3.05c.4,0,.78.16,1.06.44.28.28.44.66.44,1.06s-.16.78-.44,1.06c-.28.28-.66.44-1.06.44s-.78-.16-1.06-.44c-.28-.28-.44-.66-.44-1.06s.16-.78.44-1.06c.28-.28.66-.44,1.06-.44Z"/></svg>