<svg xmlns="http://www.w3.org/2000/svg" width="40" height="40" viewBox="0 0 40 40"><defs><clipPath id="a"><path fill="none" stroke-width="0" d="M0 0h40v40H0z"/></clipPath></defs><g clip-path="url(#a)"><path fill="#25d366" d="M20 40A20 20 0 1 0 20.01.01 20 20 0 0 0 20 40Z"/><path fill="#fff" d="M28.86 11.09a12.46 12.46 0 0 0-19.6 15.02l-1.77 6.45 6.6-1.73a12.47 12.47 0 0 0 14.76-19.75Zm-8.81 19.15c-1.86 0-3.68-.5-5.27-1.44l-.38-.22-3.92 1.03 1.04-3.82-.25-.39a10.36 10.36 0 1 1 8.76 4.85Zm5.68-7.75c-.31-.16-1.84-.91-2.13-1.01-.29-.1-.49-.16-.7.16-.21.31-.8 1.01-.99 1.22-.18.21-.36.23-.67.08-.31-.16-1.31-.48-2.5-1.54a9.4 9.4 0 0 1-1.73-2.15c-.18-.31-.02-.48.14-.63.14-.14.31-.36.47-.55.16-.18.21-.31.31-.52a.56.56 0 0 0-.03-.54c-.08-.16-.7-1.69-.96-2.31-.25-.61-.51-.52-.7-.53l-.6-.01c-.21 0-.54.08-.83.39-.28.31-1.09 1.06-1.09 2.6s1.11 3.01 1.27 3.22c.16.21 2.19 3.35 5.31 4.7.74.32 1.32.51 1.77.66.74.24 1.42.2 1.96.12.6-.09 1.84-.75 2.1-1.48s.26-1.35.18-1.48c-.08-.13-.29-.21-.6-.36Z"/></g></svg>